<?xml version="1.0" standalone="no"?>
<!DOCTYPE svg PUBLIC "-//W3C//DTD SVG 20010904//EN"
 "http://www.w3.org/TR/2001/REC-SVG-20010904/DTD/svg10.dtd">
<svg version="1.0" xmlns="http://www.w3.org/2000/svg"
 width="512.000000pt" height="512.000000pt" viewBox="0 0 512.000000 512.000000"
 preserveAspectRatio="xMidYMid meet">
<metadata>
Created by potrace 1.16, written by Peter Selinger 2001-2019
</metadata>
<g transform="translate(0.000000,512.000000) scale(0.100000,-0.100000)"
fill="#000000" stroke="none">
<path d="M2596 4254 c-38 -8 -98 -26 -133 -40 -49 -18 -85 -24 -144 -24 -156
0 -398 -64 -573 -152 -322 -161 -587 -430 -700 -712 -59 -146 -71 -213 -71
-391 0 -178 14 -240 77 -338 17 -26 29 -49 27 -51 -2 -2 -22 -13 -44 -24 -48
-24 -90 -66 -104 -105 -12 -32 8 -161 89 -575 68 -343 92 -405 194 -507 63
-63 108 -84 272 -128 388 -105 782 -165 1139 -174 235 -6 266 -1 342 51 45 31
67 37 256 70 229 41 280 56 399 118 181 94 309 227 367 381 42 113 231 807
231 848 0 45 -35 86 -103 118 l-65 31 26 78 c25 71 27 89 26 247 0 187 -12
250 -74 398 -71 172 -241 377 -391 472 -40 27 -93 69 -117 96 -57 64 -174 151
-275 204 -203 107 -459 150 -651 109z m427 -88 c166 -50 315 -136 442 -257 44
-42 109 -95 145 -119 83 -55 204 -178 264 -268 213 -322 231 -752 39 -939
-106 -103 -396 -204 -796 -278 -173 -31 -206 -31 -67 0 206 48 465 154 610
250 39 26 70 48 70 50 0 1 -51 -19 -113 -45 -152 -65 -453 -161 -617 -199
-222 -50 -372 -64 -630 -59 l-225 5 55 -18 55 -19 -65 6 c-89 7 -279 44 -312
60 -33 17 -51 48 -43 74 8 25 91 99 168 150 151 99 435 224 792 347 205 72
323 122 556 239 104 52 228 110 276 130 49 20 92 40 97 44 10 10 -21 19 -84
23 l-45 2 42 13 c23 7 69 14 101 15 78 3 56 17 -27 17 -113 0 -304 -74 -486
-190 -132 -84 -190 -111 -397 -183 -102 -36 -216 -80 -254 -97 -37 -16 -69
-29 -71 -27 -1 2 66 45 150 95 83 50 168 105 187 122 l35 30 -40 -6 c-68 -11
-202 -60 -283 -104 -100 -54 -172 -110 -240 -187 -46 -52 -67 -67 -139 -98
-46 -20 -106 -49 -134 -66 -27 -16 -52 -29 -55 -29 -10 0 49 106 74 133 36 38
9 36 -51 -4 -97 -64 -158 -154 -212 -314 -29 -86 -31 -90 -61 -93 -36 -3 -190
51 -299 105 -94 47 -193 122 -250 188 -25 30 -50 55 -55 55 -13 0 5 -54 39
-117 17 -31 29 -58 27 -60 -9 -9 -80 75 -103 122 -34 67 -43 96 -52 187 -30
284 109 619 350 842 305 283 699 438 1035 408 67 -6 129 -6 194 2 l95 12 -60
18 c-120 35 -116 32 -65 45 25 7 50 14 55 16 6 3 73 3 150 1 115 -3 156 -8
228 -30z m1101 -1631 c61 -56 13 -131 -129 -202 -67 -34 -270 -112 -356 -136
-66 -20 -102 -45 -118 -85 -15 -36 -53 -56 -156 -82 -44 -11 -98 -26 -120 -34
-22 -8 -43 -12 -47 -9 -5 2 -8 22 -8 44 0 81 -45 93 -228 62 -414 -70 -1702
131 -1823 285 -25 32 -24 77 1 102 23 23 48 25 75 7 89 -60 500 -219 559 -216
17 1 87 -12 156 -29 436 -108 896 -105 1370 9 385 92 574 174 677 293 l38 43
42 -14 c23 -8 53 -25 67 -38z m-47 -332 c-83 -309 -149 -530 -173 -581 -86
-177 -396 -372 -591 -372 -91 0 -143 44 -143 122 0 40 -10 29 -39 -42 -43
-103 -90 -129 -112 -63 l-12 37 -14 -53 c-30 -120 -74 -145 -263 -149 -289 -8
-808 64 -1189 163 -157 41 -224 69 -278 119 -45 40 -94 125 -117 205 -32 111
-145 726 -134 736 11 11 123 -62 140 -92 13 -20 27 -91 43 -213 32 -240 44
-297 67 -323 19 -22 19 -21 13 106 -3 71 -10 165 -15 210 -15 128 -13 206 6
214 30 11 146 -29 185 -64 50 -45 64 -92 94 -309 42 -309 52 -360 71 -341 4 4
2 105 -4 225 -17 309 -16 348 8 372 40 40 152 13 197 -47 33 -46 42 -90 58
-298 23 -293 37 -367 67 -349 7 4 8 116 3 323 -9 363 -12 348 74 338 72 -9
127 -40 150 -86 17 -32 22 -73 31 -252 11 -234 16 -272 33 -266 15 5 25 132
26 357 1 96 5 181 10 189 6 10 24 12 64 9 70 -6 132 -44 154 -96 19 -45 32
-223 34 -452 2 -261 18 -292 44 -83 9 71 15 205 15 340 0 265 -1 263 100 263
32 0 70 -5 84 -11 20 -9 29 -9 41 1 13 11 210 49 256 50 14 0 15 -8 8 -52 -5
-29 -11 -136 -14 -238 -5 -166 -4 -182 9 -155 8 17 18 49 22 73 11 74 21 54
28 -60 4 -62 9 -114 11 -117 12 -12 18 18 31 151 8 79 19 158 25 176 14 42 53
88 93 109 30 16 158 52 184 53 9 0 12 -46 12 -195 0 -107 4 -195 8 -195 19 0
40 106 67 340 9 74 22 144 30 156 13 21 152 80 163 69 3 -2 -9 -116 -27 -252
-35 -275 -37 -303 -20 -286 20 20 59 173 94 373 19 107 35 196 35 198 0 7 113
53 118 47 3 -3 -8 -90 -26 -193 -47 -282 -46 -275 -31 -270 19 6 51 107 100
324 l43 185 46 34 c25 19 45 35 46 35 0 0 -17 -66 -39 -147z m-1154 70 c-7 -2
-21 -2 -30 0 -10 3 -4 5 12 5 17 0 24 -2 18 -5z m-75 -10 c-10 -2 -26 -2 -35
0 -10 3 -2 5 17 5 19 0 27 -2 18 -5z m-90 -10 c-10 -2 -26 -2 -35 0 -10 3 -2
5 17 5 19 0 27 -2 18 -5z"/>
<path d="M2815 4131 c-16 -8 -13 -10 20 -11 22 0 69 -7 105 -15 76 -16 89 -12
34 11 -46 20 -131 28 -159 15z"/>
<path d="M2600 4034 c-240 -65 -500 -312 -661 -630 -86 -169 -145 -364 -164
-542 -8 -71 2 -212 15 -212 11 0 31 62 85 269 77 295 226 622 351 775 63 76
194 200 260 246 86 59 131 77 220 86 41 4 61 10 52 15 -20 13 -96 9 -158 -7z"/>
<path d="M2500 3929 c-179 -120 -328 -319 -375 -504 -8 -32 -15 -98 -14 -145
l0 -85 20 74 c63 235 169 413 364 614 48 49 85 90 83 92 -2 2 -37 -19 -78 -46z"/>
<path d="M2869 3939 c-31 -4 -71 -14 -89 -21 -27 -11 -3 -13 184 -13 179 0
209 2 181 12 -36 12 -174 34 -203 32 -9 -1 -42 -5 -73 -10z"/>
<path d="M1958 3901 c-141 -45 -265 -170 -308 -309 -26 -85 -25 -87 12 -22 39
70 158 187 223 222 28 15 97 40 154 57 56 16 106 33 109 36 4 4 -2 13 -12 21
-27 19 -109 17 -178 -5z"/>
<path d="M2890 3713 c-55 -9 -159 -47 -230 -84 -135 -70 -297 -217 -350 -318
l-12 -24 33 20 c19 11 57 33 84 49 28 15 90 54 139 86 49 32 145 91 213 130
67 39 123 73 123 75 0 19 -175 -53 -275 -111 -44 -26 -73 -41 -65 -32 28 29
173 105 254 134 45 16 123 38 174 48 61 12 87 21 75 26 -19 7 -121 8 -163 1z"/>
<path d="M1481 3603 c-84 -85 -133 -168 -171 -288 -25 -80 -38 -293 -22 -360
l10 -40 1 50 c2 77 29 219 63 325 43 133 108 259 188 363 40 50 8 28 -69 -50z"/>
<path d="M3363 3541 c-56 -19 -120 -58 -128 -79 -2 -7 15 -1 39 13 24 14 79
39 122 55 59 22 71 29 49 29 -16 0 -53 -8 -82 -18z"/>
<path d="M1725 3468 c-62 -69 -119 -168 -145 -253 -31 -100 -38 -270 -16 -400
10 -55 18 -100 19 -101 1 -1 3 61 4 139 5 299 49 473 154 615 22 28 38 52 35
52 -2 0 -25 -23 -51 -52z"/>
<path d="M3000 3449 c-174 -34 -485 -151 -565 -213 -17 -13 -17 -15 -3 -16 29
0 256 69 359 110 103 41 259 117 259 125 0 3 -1 5 -2 4 -2 -1 -23 -5 -48 -10z"/>
<path d="M3309 3364 c-245 -148 -434 -283 -417 -299 11 -12 124 36 189 79 101
67 348 276 327 276 -3 0 -47 -25 -99 -56z"/>
<path d="M2224 3155 c-48 -48 -97 -143 -109 -208 -6 -36 -5 -38 14 -28 40 22
172 263 151 276 -5 3 -30 -15 -56 -40z"/>
<path d="M3635 3023 c-68 -129 -128 -222 -208 -320 -37 -46 -65 -83 -61 -83 3
0 28 16 55 36 122 89 224 246 254 389 8 38 13 70 12 71 -1 1 -25 -41 -52 -93z"/>
<path d="M3779 2828 c-19 -24 -65 -76 -103 -115 -38 -40 -64 -73 -58 -73 24 0
109 71 144 121 32 46 63 109 54 109 -1 0 -18 -19 -37 -42z"/>
<path d="M2928 2795 c-181 -50 -404 -151 -556 -252 -46 -30 -82 -57 -80 -59
14 -14 689 270 761 321 21 15 21 15 -8 14 -17 0 -69 -11 -117 -24z"/>
<path d="M3191 2689 c-71 -43 -310 -159 -397 -193 -138 -53 -348 -107 -544
-139 -14 -2 34 -5 107 -6 305 -3 559 83 783 265 105 84 130 121 51 73z"/>
<path d="M3210 2523 c-88 -45 -115 -62 -90 -58 48 7 170 68 199 99 14 14 23
25 20 25 -2 -1 -60 -30 -129 -66z"/>
<path d="M1766 1060 c-33 -6 -63 -13 -68 -18 -4 -4 90 -22 210 -40 337 -50
431 -62 507 -61 l70 1 -102 34 c-210 70 -476 106 -617 84z"/>
<path d="M1795 870 c-315 -12 -694 -46 -712 -63 -16 -16 2176 -23 2457 -8 110
6 112 6 55 13 -157 19 -951 56 -1335 62 -146 2 -355 1 -465 -4z"/>
</g>
</svg>