<?xml version="1.0" standalone="no"?>
<!DOCTYPE svg PUBLIC "-//W3C//DTD SVG 20010904//EN"
 "http://www.w3.org/TR/2001/REC-SVG-20010904/DTD/svg10.dtd">
<svg version="1.0" xmlns="http://www.w3.org/2000/svg"
 width="512.000000pt" height="512.000000pt" viewBox="0 0 512.000000 512.000000"
 preserveAspectRatio="xMidYMid meet">
<metadata>
Created by potrace 1.16, written by Peter Selinger 2001-2019
</metadata>
<g transform="translate(0.000000,512.000000) scale(0.100000,-0.100000)"
fill="#000000" stroke="none">
<path d="M0 5096 c0 -20 5 -24 33 -24 52 0 187 -67 187 -92 0 -15 -38 -21 -87
-14 -39 5 -56 15 -90 50 l-43 44 0 -318 0 -318 43 -45 c24 -25 52 -65 64 -90
24 -51 66 -229 61 -259 -3 -19 -5 -20 -22 -7 -19 14 -22 26 -27 102 -1 31 -3
34 -6 13 -7 -43 -29 -33 -70 29 l-38 57 -3 -34 c-3 -27 4 -40 35 -74 64 -67
119 -138 140 -181 61 -121 218 -590 247 -735 18 -93 19 -300 1 -300 -6 0 -13
48 -16 112 -7 120 -29 245 -58 331 l-18 52 -54 0 c-61 -1 -126 -30 -221 -98
l-57 -42 -1 -134 c0 -127 1 -133 18 -119 24 21 186 118 196 118 20 0 -32 -43
-120 -100 -66 -43 -94 -67 -94 -81 0 -19 0 -19 38 0 20 11 89 62 152 115 112
94 140 110 140 82 0 -22 -110 -124 -191 -177 -81 -53 -84 -48 44 -67 87 -13
178 -57 245 -117 29 -26 51 -49 49 -52 -2 -2 -27 8 -55 22 -77 39 -102 34
-172 -30 -33 -30 -62 -55 -65 -55 -14 0 -1 23 41 69 60 67 41 65 -38 -4 -35
-31 -91 -70 -125 -87 l-63 -31 0 -122 0 -123 73 -55 c104 -79 178 -158 166
-179 -7 -13 4 -29 52 -75 34 -32 69 -57 78 -55 9 2 42 6 73 9 32 3 58 9 58 13
0 20 -88 116 -224 245 -145 138 -196 201 -196 243 0 34 13 26 42 -26 28 -50
96 -122 85 -89 -4 10 -7 24 -7 31 0 8 -18 40 -40 72 -51 75 -51 91 0 44 22
-20 40 -43 40 -51 0 -11 2 -12 9 -1 13 21 48 -30 60 -89 13 -58 30 -85 126
-196 69 -80 70 -80 73 -51 2 17 -6 85 -17 152 -34 205 -30 243 16 160 30 -54
46 -162 38 -264 -7 -93 -14 -65 82 -331 l38 -107 91 -61 c102 -68 175 -141
217 -219 32 -59 20 -71 -15 -14 -56 92 -144 156 -359 263 l-87 42 -97 -62
c-86 -56 -225 -128 -338 -174 -45 -19 -50 -52 -12 -87 26 -24 58 -99 69 -162
11 -58 -11 -47 -40 20 -54 127 -53 125 -53 50 l-1 -67 47 -32 c66 -46 233
-214 277 -279 21 -30 35 -46 32 -35 -3 11 -10 51 -16 89 -7 46 -25 96 -52 148
-22 43 -42 77 -45 75 -2 -3 1 -24 6 -48 13 -55 14 -119 2 -119 -5 0 -12 19
-16 43 -4 23 -25 93 -46 154 -44 126 -43 123 -29 123 6 0 20 -20 32 -45 12
-24 25 -42 29 -39 12 7 66 -70 100 -141 36 -74 38 -62 4 20 -25 60 -89 334
-80 343 12 12 34 -24 50 -81 9 -34 39 -130 65 -213 61 -191 78 -289 61 -353
-11 -44 -9 -54 24 -153 33 -101 46 -173 26 -153 -5 6 -17 38 -26 73 -33 131
-95 239 -200 350 l-66 70 -30 -15 c-22 -11 -48 -14 -90 -10 -33 3 -59 1 -59
-3 0 -18 158 -112 237 -142 46 -17 83 -35 83 -40 0 -15 -87 -8 -151 12 -35 11
-88 35 -116 54 l-53 35 0 -115 c0 -63 3 -114 6 -114 3 0 20 11 37 24 42 31 97
59 97 48 0 -4 -31 -33 -70 -65 -48 -39 -70 -64 -70 -79 0 -18 9 -12 50 33 27
30 49 49 50 43 0 -6 -23 -45 -51 -87 -32 -49 -49 -85 -47 -99 3 -21 10 -16 76
46 39 38 74 67 76 65 3 -2 -31 -46 -75 -96 l-79 -92 0 -175 c0 -97 2 -176 4
-176 2 0 62 39 132 87 160 107 380 273 457 343 88 80 82 50 -9 -41 -122 -124
-520 -439 -555 -439 -5 0 -9 -4 -9 -10 0 -5 8 -10 17 -10 9 0 45 -16 80 -35
73 -40 83 -43 58 -15 -28 31 -13 33 39 5 58 -31 160 -36 170 -9 6 16 8 16 24
0 10 -9 32 -16 49 -16 28 0 29 2 25 32 l-5 32 39 -32 c46 -38 50 -39 58 -10
l7 23 11 -23 c16 -32 22 -28 35 21 12 43 85 145 91 127 2 -6 -1 -33 -7 -60 -6
-28 -11 -64 -11 -80 0 -28 3 -30 37 -30 23 0 45 7 59 21 12 11 55 38 95 59 79
42 85 50 19 24 -23 -9 -43 -14 -46 -11 -11 10 87 49 150 58 101 16 110 8 36
-30 -36 -19 -94 -52 -130 -75 l-65 -41 154 -3 154 -3 35 33 c19 18 52 55 74
82 l39 49 -7 130 c-6 109 -5 129 7 125 9 -3 17 -30 22 -79 15 -142 18 -160 30
-156 7 2 32 42 58 90 25 48 49 90 53 94 21 20 -10 -60 -55 -141 -27 -49 -46
-92 -43 -95 12 -13 73 70 94 128 25 67 40 78 40 29 0 -64 -20 -108 -71 -156
-44 -41 -47 -47 -30 -54 11 -3 25 -23 32 -42 l13 -36 172 0 171 0 42 31 c50
36 63 33 25 -4 l-27 -27 122 0 c66 0 121 3 121 8 0 4 -7 16 -15 26 -28 37 -2
37 36 0 21 -21 41 -35 45 -32 3 4 -8 19 -25 34 -18 15 -30 33 -27 40 5 14 -11
40 -71 110 -37 44 -73 108 -73 130 0 4 10 -1 23 -12 12 -11 48 -37 80 -58 31
-21 57 -45 57 -53 0 -11 -4 -11 -20 -3 -38 21 -20 3 36 -34 57 -38 84 -80 84
-131 0 -14 5 -25 10 -25 15 0 12 154 -4 231 -8 37 -26 90 -40 118 -27 53 -21
66 15 30 54 -54 97 -213 85 -320 -7 -68 8 -81 18 -15 12 79 -16 207 -64 292
-32 57 -34 64 -22 64 14 0 70 -103 91 -167 15 -44 21 -88 21 -148 l0 -85 94 0
c85 0 94 2 99 20 7 29 67 29 67 0 0 -15 7 -20 29 -20 24 0 29 5 35 31 3 17 6
56 6 85 0 55 13 72 24 32 3 -13 6 -51 6 -85 l0 -63 60 0 60 0 0 46 c0 59 31
212 73 358 25 87 31 119 23 133 -18 31 -11 247 13 378 24 130 61 249 86 274
13 14 15 14 15 -3 0 -9 -12 -68 -26 -129 -40 -175 -53 -260 -59 -391 l-6 -121
26 48 c15 27 35 83 46 125 30 120 127 404 149 437 l19 29 -2 -44 c-1 -25 -4
-47 -7 -50 -5 -5 -18 -37 -35 -85 -3 -11 10 10 30 46 20 37 56 89 81 115 24
27 70 83 101 124 104 138 265 285 371 339 70 35 60 17 -22 -44 -110 -81 -192
-161 -330 -320 -136 -156 -169 -201 -215 -293 -34 -68 -91 -215 -91 -236 0 -7
53 40 118 104 169 167 320 264 507 325 85 28 255 46 255 28 0 -6 -33 -13 -73
-16 -174 -15 -357 -123 -672 -396 -133 -116 -204 -223 -254 -385 -29 -94 -26
-94 18 0 84 178 217 335 356 423 39 24 118 75 177 113 236 151 496 239 632
214 56 -11 47 -36 -11 -36 -138 0 -312 -54 -476 -146 -112 -64 -117 -68 -101
-85 14 -15 14 -21 4 -34 -15 -18 -51 -20 -67 -4 -26 26 -78 -31 -113 -124 -18
-49 -27 -58 -71 -81 -61 -32 -71 -20 -40 48 20 47 46 60 54 29 3 -14 7 -11 16
12 7 17 18 42 26 58 20 40 4 33 -61 -26 -117 -107 -294 -352 -347 -481 -27
-68 -77 -237 -77 -263 0 -8 12 -13 29 -13 23 0 30 5 36 27 10 42 98 214 146
285 87 129 405 422 606 556 159 107 498 260 468 212 -4 -6 -51 -33 -106 -60
-280 -141 -620 -384 -780 -558 -50 -54 -161 -241 -128 -216 140 109 368 254
514 327 90 44 194 82 203 73 13 -13 -72 -75 -168 -122 -52 -25 -140 -72 -195
-104 -55 -32 -125 -70 -155 -85 -93 -47 -220 -134 -229 -157 -5 -13 -20 -58
-34 -100 l-25 -78 47 0 c46 1 46 1 86 67 22 37 90 118 152 182 115 119 164
147 77 44 l-49 -58 40 29 c22 16 60 48 85 71 48 46 202 157 208 151 2 -2 -13
-36 -32 -75 -24 -47 -32 -71 -23 -71 21 0 72 60 106 125 36 69 110 158 111
134 0 -8 -28 -62 -62 -120 -75 -125 -140 -192 -340 -352 -82 -65 -148 -120
-148 -123 0 -3 17 -2 38 2 40 7 127 69 251 179 41 36 77 63 80 59 6 -6 -164
-175 -219 -217 l-35 -27 291 0 292 0 -15 68 c-31 147 -43 317 -43 594 0 152 4
279 9 282 5 3 13 -7 19 -22 6 -15 13 -36 18 -47 4 -11 11 -195 15 -410 5 -215
11 -403 15 -419 6 -26 9 -23 29 40 30 90 61 160 74 168 6 4 11 4 11 -1 0 -17
-39 -131 -64 -187 -31 -70 -31 -66 -8 -66 12 0 29 18 47 52 24 43 30 70 36
153 7 101 15 135 29 135 4 0 10 -30 14 -67 3 -38 9 -93 12 -124 4 -38 2 -64
-7 -80 l-13 -24 -6 30 c-5 30 -5 30 -31 -22 l-26 -53 27 0 c22 0 34 11 64 55
24 37 32 55 22 55 -10 0 -2 25 29 88 24 48 62 139 85 202 23 63 60 158 83 210
55 131 109 294 93 281 -11 -9 -15 -5 -19 17 -6 32 1 72 13 72 4 0 11 12 14 26
7 25 8 25 25 10 17 -15 18 -13 29 36 25 120 24 128 -7 63 -15 -33 -38 -69 -51
-80 -41 -37 -64 -95 -65 -163 0 -62 0 -63 -18 -41 -18 22 -18 22 -12 -22 3
-24 8 -56 10 -72 4 -24 2 -26 -14 -18 -25 14 -31 33 -31 92 0 37 4 49 15 49
10 0 15 10 15 30 0 44 24 95 67 145 47 53 108 167 117 218 5 25 -2 80 -19 165
-21 102 -36 148 -80 237 -29 61 -75 142 -101 182 -41 62 -56 76 -117 110 -47
25 -78 49 -90 71 -11 18 -17 35 -14 38 9 9 86 -35 127 -73 51 -45 96 -107 177
-241 40 -66 62 -95 58 -77 -3 17 -14 41 -24 55 -10 14 -32 54 -50 89 -25 51
-31 75 -31 127 0 35 4 64 10 64 13 0 49 -39 65 -71 9 -16 13 -52 12 -90 -1
-53 4 -76 29 -133 l31 -68 7 36 c4 20 4 52 0 71 -10 54 13 42 25 -13 11 -53 1
-120 -24 -156 -17 -23 -19 -64 -5 -86 7 -11 10 -7 10 18 0 18 4 31 9 28 5 -3
12 5 15 19 7 26 20 32 31 14 4 -5 -1 -41 -10 -78 -9 -38 -15 -82 -13 -97 3
-23 10 -9 35 66 17 52 34 113 37 135 12 69 26 77 26 14 0 -53 -25 -151 -64
-258 -13 -34 -15 -62 -10 -126 4 -57 3 -84 -5 -89 -7 -5 -11 7 -12 36 -1 36
-2 39 -9 18 -4 -14 -8 -41 -9 -61 -2 -57 -37 -173 -115 -379 -155 -410 -186
-490 -210 -538 l-26 -51 97 45 c135 63 127 61 115 37 -16 -29 -76 -79 -135
-113 -50 -28 -151 -120 -132 -120 6 0 48 23 95 50 46 27 87 47 89 44 7 -6 -50
-64 -84 -85 l-30 -19 39 0 c27 0 47 7 64 23 l25 22 -12 -22 c-22 -42 33 -28
106 27 36 28 70 50 74 50 18 0 8 -26 -22 -63 l-30 -37 61 0 c75 0 162 40 208
97 17 21 33 35 37 31 13 -13 -4 -53 -38 -91 l-35 -37 141 0 142 0 -64 37 c-78
46 -238 195 -269 252 -13 22 -20 41 -16 41 4 0 41 -33 83 -73 47 -44 92 -77
116 -86 22 -7 58 -24 80 -38 l40 -26 -21 24 c-31 34 -50 76 -68 146 -34 131
-13 124 62 -22 51 -97 62 -112 105 -137 l47 -27 0 195 0 194 -33 49 c-43 61
-69 128 -107 268 -16 62 -37 127 -45 145 -14 31 -15 24 -11 -102 3 -74 12
-168 20 -209 18 -81 61 -212 83 -251 12 -23 13 -18 7 48 -4 49 -3 72 5 72 14
0 15 -199 1 -220 -8 -13 -10 -13 -10 1 0 9 -18 54 -40 100 l-41 84 6 -49 c3
-32 21 -79 51 -134 25 -46 44 -94 42 -105 -2 -16 -18 5 -56 75 -105 192 -143
451 -107 722 l14 108 -29 59 c-30 58 -38 103 -21 113 5 4 29 -22 54 -56 25
-35 84 -101 131 -148 l86 -85 0 48 c0 26 -6 57 -12 68 -10 17 -10 23 -1 26 25
9 12 28 -30 47 -55 26 -249 228 -233 244 3 2 26 -14 51 -36 26 -23 63 -46 83
-53 49 -15 84 -38 77 -49 -3 -5 -18 -4 -36 2 -16 6 -32 8 -35 5 -11 -11 56
-37 96 -37 39 0 40 1 40 34 0 26 -12 51 -48 98 -53 69 -116 110 -195 128 -57
12 -87 26 -87 42 0 15 88 3 166 -23 34 -11 84 -35 110 -55 l49 -34 3 67 c2 53
0 68 -13 76 -55 30 -145 139 -145 175 0 18 34 10 108 -23 l52 -24 0 36 0 36
-60 -6 c-33 -4 -60 -5 -60 -2 0 3 27 18 60 35 33 17 60 36 60 43 0 6 -30 27
-66 46 -45 23 -80 51 -112 90 -80 97 -264 273 -363 349 -83 63 -100 72 -124
66 -33 -8 -56 15 -48 46 8 32 -52 25 -138 -14 -41 -18 -85 -37 -99 -41 l-25
-7 25 27 c22 25 22 27 5 20 -35 -14 -75 -18 -75 -7 0 15 81 59 123 67 l38 7
-32 22 c-30 21 -35 21 -103 9 -39 -7 -89 -16 -111 -19 -32 -5 -36 -8 -20 -14
19 -7 18 -9 -10 -33 -56 -49 -154 -127 -160 -127 -12 0 -3 36 21 81 18 33 38
53 63 65 20 9 42 23 49 32 7 9 34 19 60 22 l47 5 -64 24 c-44 16 -76 22 -103
18 -70 -9 -40 9 65 39 84 24 121 29 207 29 94 0 111 -3 155 -25 29 -16 68 -48
94 -80 43 -53 46 -55 89 -52 35 3 49 -1 68 -19 13 -12 24 -29 24 -37 0 -15
-21 -14 -90 4 -14 3 9 -15 50 -40 104 -63 193 -146 305 -286 53 -65 112 -133
131 -149 31 -27 104 -71 119 -71 3 0 5 20 5 45 0 25 -5 45 -11 45 -5 0 -20 21
-32 48 l-22 47 -3 -48 c-5 -81 -32 -54 -32 33 0 41 -8 62 -51 132 -73 119
-155 199 -303 294 l-29 19 31 -44 c36 -49 57 -105 48 -128 -9 -21 -30 -3 -63
56 -15 25 -51 79 -81 119 -30 40 -52 75 -50 77 8 8 72 -15 137 -48 l65 -33 41
50 c54 67 168 154 272 208 l83 43 0 104 0 103 -37 -28 c-21 -15 -69 -55 -108
-88 -98 -84 -236 -171 -325 -205 -71 -28 -238 -66 -247 -57 -10 9 100 222 158
308 110 161 346 374 497 448 60 29 62 31 62 68 l0 38 -80 13 c-44 8 -82 17
-85 21 -8 14 38 19 85 10 74 -15 80 -13 80 20 0 35 -9 37 -86 16 -222 -59
-624 -431 -745 -690 -17 -37 -30 -69 -28 -71 2 -2 33 32 67 76 59 73 107 118
117 108 2 -3 -28 -43 -67 -89 -85 -102 -134 -175 -144 -213 -11 -48 -24 -40
-24 17 0 77 41 201 91 272 23 32 36 53 29 47 -16 -15 -50 -17 -50 -4 0 5 14
14 31 21 17 8 55 44 86 84 74 95 133 155 223 231 149 125 321 222 438 249 l57
12 3 42 c2 24 -1 42 -7 42 -31 0 -116 -39 -190 -87 -49 -32 -81 -47 -77 -38 3
9 6 18 6 20 0 2 35 30 77 62 69 51 119 79 176 97 15 5 26 56 12 56 -2 0 -26
-13 -52 -30 -48 -30 -77 -37 -88 -21 -6 11 65 71 113 95 28 14 32 22 32 56 0
28 -6 43 -21 53 l-21 15 21 7 c31 9 26 22 -14 35 -49 16 -52 29 -5 23 39 -6
40 -5 40 26 0 28 -3 31 -32 31 -33 0 -145 46 -136 55 3 3 29 1 58 -5 82 -16
110 -13 110 9 0 24 -11 28 -101 37 -75 7 -109 17 -109 34 0 5 9 12 21 15 41
13 10 15 -61 4 -71 -11 -140 -6 -140 10 0 5 37 19 81 31 l82 24 -37 29 c-20
16 -34 33 -31 37 7 11 113 -17 151 -41 17 -10 39 -27 49 -39 18 -19 18 -20 -3
-20 -11 0 -24 -4 -27 -10 -3 -5 3 -10 13 -10 11 0 38 -7 61 -15 22 -8 41 -11
41 -8 0 3 -11 21 -25 39 -31 41 -130 97 -210 119 -66 19 -92 35 -57 35 57 0
227 -73 274 -118 21 -19 28 -22 28 -10 0 18 -56 58 -125 90 -41 18 -46 23 -27
26 18 3 53 -11 145 -56 5 -2 6 42 2 99 -7 138 -7 232 0 363 6 94 5 110 -9 118
-9 5 -21 18 -27 30 -10 19 -9 20 17 15 18 -4 10 2 -21 17 -27 13 -59 33 -69
45 -19 21 -19 21 5 21 13 0 43 -9 67 -20 l42 -19 0 24 c0 16 -5 23 -13 19 -7
-2 -30 7 -51 21 -35 24 -44 25 -169 25 l-132 0 -24 -36 c-30 -43 -114 -120
-155 -141 -35 -19 -126 -44 -171 -48 -16 -1 -20 0 -9 2 12 2 39 19 60 37 22
18 78 58 125 89 47 31 94 66 104 77 18 20 18 20 -30 20 -44 0 -53 -5 -112 -56
-35 -31 -66 -54 -69 -51 -10 9 28 58 65 83 l36 24 -106 0 -106 0 -71 -50 c-39
-27 -107 -83 -151 -124 -73 -69 -86 -77 -165 -101 -73 -22 -91 -32 -121 -67
-38 -46 -47 -35 -14 18 28 47 62 68 145 93 57 17 84 32 137 79 36 32 93 78
127 102 l61 45 -40 3 c-32 3 -48 -3 -84 -31 -58 -44 -154 -103 -202 -123 -36
-15 -37 -14 -31 3 9 23 5 18 -65 -73 -33 -44 -82 -124 -110 -179 -58 -116 -64
-124 -81 -107 -17 17 37 122 127 253 l64 93 -30 51 c-16 27 -37 65 -46 83
l-17 32 -173 0 -173 0 -62 -46 c-117 -87 -268 -143 -268 -100 0 17 27 35 108
69 34 15 79 38 100 52 l37 25 -47 0 c-34 0 -54 -6 -75 -23 -15 -13 -61 -45
-101 -72 -96 -63 -173 -157 -212 -261 -9 -23 -7 -22 22 9 21 21 54 41 88 52
87 28 162 69 218 120 29 26 55 45 58 42 12 -12 -94 -110 -180 -167 -78 -51
-115 -68 -215 -97 -8 -2 -12 -6 -9 -8 6 -6 136 21 191 40 l42 14 -42 -38 c-48
-43 -145 -76 -192 -66 -26 5 -30 2 -49 -42 -11 -26 -30 -81 -42 -121 -23 -75
-34 -92 -53 -73 -7 7 2 42 31 123 39 104 42 121 42 209 0 122 24 204 86 294
l45 66 -62 -3 -61 -3 -18 -59 c-33 -105 -54 -96 -26 11 l14 51 -170 1 c-147 1
-169 -1 -165 -14 7 -17 -14 -154 -38 -244 -29 -113 -69 -177 -176 -282 -53
-54 -100 -95 -103 -92 -3 3 6 26 19 52 l24 46 -19 55 c-25 71 -25 90 4 240 27
136 34 160 47 160 12 0 35 -47 44 -90 4 -19 11 -45 16 -57 8 -22 8 -22 38 7
33 34 57 41 42 13 -5 -10 -23 -31 -40 -47 -21 -20 -31 -39 -31 -58 l0 -29 50
43 c42 36 54 54 70 107 25 79 26 104 4 73 -8 -12 -33 -31 -54 -42 l-40 -20
-23 37 c-59 94 -69 128 -39 136 9 3 -125 5 -299 6 l-316 1 21 -94 c24 -110 30
-112 91 -20 41 62 60 61 58 -3 -1 -28 -8 -43 -30 -60 -15 -12 -37 -30 -48 -40
-20 -18 -23 -19 -47 -22 -9 -1 -8 -4 2 -11 13 -9 12 -13 -5 -28 -12 -9 -29
-47 -39 -86 -19 -70 -58 -127 -64 -95 -1 9 8 47 22 85 l25 69 -26 -34 c-15
-19 -65 -58 -112 -88 -47 -30 -103 -73 -125 -96 -33 -36 -36 -38 -22 -12 10
17 80 91 158 166 l140 135 -16 90 c-30 163 -15 144 -112 144 l-84 0 -31 -62
c-17 -35 -77 -144 -132 -243 -55 -99 -120 -221 -143 -271 -49 -102 -51 -105
-70 -97 -21 8 -17 35 17 137 39 117 109 249 215 403 46 68 84 125 84 128 0 3
-44 5 -99 5 l-98 0 -82 -80 c-89 -86 -126 -152 -191 -335 -17 -49 -34 -92 -37
-95 -19 -17 13 118 52 214 25 63 45 123 45 133 0 19 23 113 35 146 7 16 -2 17
-124 16 l-131 -1 0 -24 c0 -14 -4 -22 -10 -19 -5 3 -10 15 -10 26 0 10 -4 19
-10 19 -6 0 -6 -9 0 -24 5 -13 6 -34 3 -45 -4 -14 -1 -21 7 -19 23 6 52 -49
59 -109 6 -53 7 -55 14 -25 11 55 30 39 24 -20 -5 -39 -4 -47 3 -30 16 37 54
26 58 -16 3 -30 -3 -40 -55 -88 -32 -29 -61 -54 -65 -54 -5 0 -9 51 -10 113
-1 75 -3 97 -7 67 l-6 -45 -17 50 c-25 71 -48 174 -48 213 0 27 -4 32 -24 32
-35 0 -53 -48 -33 -86 34 -67 97 -232 97 -255 -1 -26 -2 -24 -37 28 -10 14
-10 12 -1 -12 7 -16 22 -40 35 -51 12 -12 27 -41 33 -65 7 -24 29 -98 51 -165
44 -137 44 -134 25 -134 -13 0 -35 47 -106 221 -17 42 -49 100 -70 130 -50 65
-53 86 -10 64 44 -23 37 -2 -10 29 -44 29 -61 52 -85 111 -15 39 -14 39 54
-33 l70 -73 -39 84 c-22 47 -40 93 -40 103 0 13 -3 15 -8 7 -11 -17 -98 25
-136 66 -28 29 -34 31 -105 31 l-74 0 20 -22 c28 -31 45 -66 35 -72 -4 -3 -27
17 -51 45 -29 33 -50 49 -66 49 -22 0 -19 -5 27 -47 47 -45 131 -148 186 -230
23 -34 56 -118 69 -173 6 -24 4 -23 -38 13 -50 42 -74 55 -174 87 -70 22 -185
84 -185 99 0 5 15 12 33 16 30 8 30 8 7 12 -55 8 -70 14 -99 39 -48 40 -41 58
13 34 58 -24 124 -34 176 -25 l42 7 -68 69 c-41 42 -74 67 -83 64 -7 -3 -29 4
-48 15 -47 28 -73 26 -73 -4z m2193 -3 c-25 -67 -142 -199 -269 -303 -65 -54
-336 -236 -481 -324 -35 -20 -63 -39 -63 -41 0 -1 17 1 38 6 20 5 56 9 78 9
38 0 59 13 210 126 179 134 219 167 353 288 47 42 88 76 93 76 36 0 -152 -175
-335 -312 -65 -48 -117 -88 -114 -88 13 0 180 61 215 79 24 12 46 20 49 18 8
-8 -82 -65 -197 -126 -97 -50 -125 -71 -216 -160 -57 -57 -103 -105 -102 -106
6 -5 193 44 253 66 33 12 95 40 139 61 43 22 80 37 83 35 2 -3 -22 -22 -54
-44 -32 -22 -82 -56 -111 -76 -65 -44 -188 -85 -285 -93 -40 -4 -84 -14 -99
-22 -15 -9 -30 -13 -34 -9 -9 8 79 155 124 207 17 21 32 41 32 45 0 4 -28 4
-62 1 -58 -7 -65 -11 -125 -69 -35 -33 -76 -69 -91 -79 -37 -24 -21 -23 29 3
23 11 43 19 45 16 2 -2 -6 -19 -19 -38 -16 -24 -37 -39 -72 -50 -35 -12 -43
-18 -29 -21 15 -4 9 -10 -26 -26 -25 -12 -54 -22 -66 -22 -11 0 -29 -8 -38
-19 -16 -18 -16 -18 26 -11 24 5 67 18 96 29 67 27 71 26 41 -5 -48 -52 -157
-92 -174 -64 -3 6 -12 10 -19 10 -17 0 -118 -92 -138 -127 l-17 -30 49 8 c27
4 77 15 111 23 79 21 78 21 43 -15 -55 -57 -143 -109 -186 -109 -60 0 -48 29
22 52 35 12 42 17 21 13 -18 -3 -44 -5 -57 -5 -18 0 -26 -10 -42 -53 -11 -29
-23 -78 -27 -110 -5 -36 -11 -55 -17 -49 -8 8 2 94 18 150 5 16 2 22 -9 22
-23 0 -40 65 -34 126 6 59 42 148 56 140 20 -13 40 8 60 62 11 31 32 71 45 87
24 29 25 30 20 5 -4 -20 -1 -18 15 11 11 19 27 41 35 48 14 12 16 10 16 -8 0
-27 -30 -101 -41 -101 -5 0 -9 -15 -9 -32 l0 -33 22 35 22 35 6 -35 6 -35 8
32 c10 44 26 52 26 13 0 -18 -9 -46 -21 -63 -14 -21 -6 -15 22 15 24 27 69 62
99 79 30 17 47 28 37 25 -82 -26 -86 -13 -9 31 26 15 65 45 87 67 22 22 28 29
13 16 -26 -22 -28 -22 -28 -5 0 21 82 102 169 169 54 41 151 101 355 220 105
62 273 214 356 322 24 31 50 54 61 54 13 0 17 -5 12 -17z m2786 -39 c33 -42
62 -132 59 -183 -2 -28 -8 -45 -14 -44 -7 1 -15 -16 -18 -40 -10 -65 -48 -138
-94 -179 -60 -54 -69 -47 -21 15 47 58 84 133 94 190 4 20 12 37 17 37 20 0
-2 83 -59 218 -9 22 15 13 36 -14z m-234 -165 c-34 -164 -162 -322 -381 -470
-97 -65 -191 -108 -324 -149 -58 -18 -149 -45 -202 -62 -123 -38 -301 -125
-353 -173 -43 -39 -34 -38 30 5 70 47 102 60 181 71 54 7 80 7 87 0 16 -16 8
-20 -99 -47 -54 -14 -101 -27 -104 -31 -7 -7 72 6 153 27 44 11 63 12 55 5
-21 -20 -137 -63 -228 -86 -107 -26 -229 -83 -300 -140 -92 -73 -228 -209
-286 -286 -30 -40 -57 -73 -60 -73 -3 0 10 28 28 63 43 82 219 258 360 361 59
42 110 85 113 96 3 10 28 40 56 67 27 26 72 80 98 118 52 74 107 132 117 123
3 -4 -20 -43 -52 -89 -45 -64 -52 -78 -31 -65 14 10 40 40 58 68 18 27 64 77
103 110 67 56 126 95 126 83 0 -3 -44 -48 -97 -100 -53 -52 -94 -98 -90 -101
11 -11 47 19 162 132 61 60 142 130 180 157 178 121 268 174 425 253 149 74
174 91 219 141 28 31 51 61 51 67 0 6 3 7 10 0 6 -6 4 -33 -5 -75z m-1517 49
c-5 -15 -118 -78 -141 -78 -30 0 -9 19 61 55 73 37 86 41 80 23z m-2734 -148
c16 -40 41 -84 57 -98 40 -40 60 -112 58 -220 l-1 -92 -28 20 c-15 11 -33 20
-38 20 -6 0 -18 8 -28 17 -16 17 -16 18 7 24 21 5 18 7 -21 18 -89 25 -193 98
-228 160 -28 49 -16 55 64 34 74 -19 87 -26 140 -75 56 -51 60 -78 7 -45 -21
13 -58 34 -83 46 -66 32 -20 -2 68 -51 40 -22 80 -51 89 -65 28 -43 26 -16 -3
34 -20 33 -30 67 -35 113 -6 67 -64 211 -108 267 -36 45 -22 50 17 7 20 -23
50 -74 66 -114z m1326 111 c0 -32 -30 -76 -81 -121 -58 -50 -59 -51 -59 -25 0
19 17 44 63 89 62 62 77 74 77 57z m2708 -23 c-31 -46 -164 -101 -178 -73 -3
6 6 10 20 11 26 1 82 28 135 63 38 26 41 26 23 -1z m-1050 -85 c-25 -32 -50
-57 -55 -56 -5 1 -17 -14 -26 -33 -9 -18 -13 -34 -9 -34 4 0 40 18 80 40 40
22 78 40 83 40 6 0 -13 -22 -40 -50 -28 -27 -50 -53 -49 -57 5 -17 -54 -94
-93 -123 -43 -30 -106 -56 -116 -46 -10 10 15 32 73 62 31 16 75 46 98 68 38
36 37 38 -14 18 -10 -4 -9 2 5 18 20 23 19 23 -29 -3 -27 -15 -50 -26 -52 -24
-9 8 93 207 106 207 19 0 25 3 49 21 40 32 36 13 -11 -48z m103 8 c-30 -25
-77 -59 -105 -74 l-51 -29 48 49 c26 27 45 52 42 54 -3 3 5 14 17 25 18 16 20
17 15 2 -5 -13 2 -11 30 8 59 40 61 15 4 -35z m-833 25 c5 -26 -26 -50 -45
-35 -16 14 -17 31 -1 47 17 17 42 11 46 -12z m598 -140 c-31 -65 -52 -98 -54
-86 -4 25 27 94 67 148 17 23 33 42 35 42 2 0 -19 -47 -48 -104z m-2993 48
c25 -8 51 -22 58 -30 9 -12 6 -14 -22 -14 -35 0 -99 32 -99 50 0 13 8 13 63
-6z m2938 -90 c-10 -32 -29 -93 -41 -134 -25 -84 -77 -183 -91 -175 -5 4 -9
16 -10 28 -1 12 -5 2 -10 -22 -13 -69 -26 -71 -34 -7 -9 69 -1 134 17 152 11
11 13 5 11 -34 -2 -37 0 -42 6 -22 5 14 9 41 10 60 1 44 58 142 85 146 14 2
17 -3 13 -21 -2 -14 0 -22 4 -19 5 3 9 12 9 20 0 18 40 98 45 92 3 -2 -4 -31
-14 -64z m-2684 -16 c-3 -8 -6 -5 -6 6 -1 11 2 17 5 13 3 -3 4 -12 1 -19z
m3558 -13 c-16 -13 -112 -66 -213 -116 -220 -110 -288 -151 -407 -239 -109
-82 -178 -153 -234 -243 -58 -92 -186 -205 -207 -184 -10 10 20 51 131 182
118 139 250 268 350 342 109 81 294 173 500 249 108 40 119 41 80 9z m-3500
-293 c13 -134 15 -186 6 -195 -6 -6 -13 -8 -16 -5 -9 9 -25 175 -29 313 -2 72
-7 141 -10 155 -3 14 3 0 13 -30 10 -32 26 -133 36 -238z m2750 279 c-19 -18
-135 -80 -135 -72 0 12 42 63 47 57 3 -2 19 2 36 9 37 17 66 19 52 6z m-1605
-119 c0 -9 -75 -75 -134 -119 -16 -13 -41 -23 -54 -23 -24 0 -25 1 -7 20 21
23 175 130 187 130 4 0 8 -4 8 -8z m1518 -64 c-14 -18 -62 -73 -107 -121 -45
-49 -112 -133 -148 -188 -36 -55 -68 -98 -70 -95 -3 3 13 39 36 80 33 61 41
84 40 123 l-1 48 -8 -46 c-17 -101 -56 -118 -47 -20 2 31 15 90 28 131 21 72
23 74 31 45 5 -16 10 -65 11 -107 1 -43 2 -78 3 -78 0 0 22 29 49 65 26 36 71
86 99 111 28 25 38 37 21 27 -54 -35 -61 -37 -40 -14 21 25 116 83 124 76 2
-3 -7 -19 -21 -37z m-2114 -25 c-15 -27 -36 -65 -46 -85 -23 -47 -32 -49 -25
-5 6 29 4 28 -16 -13 -13 -25 -35 -63 -50 -85 l-27 -40 0 56 c0 47 5 63 31 98
31 43 50 51 29 12 -6 -12 -8 -21 -6 -21 3 0 13 14 21 31 9 16 21 29 28 26 6
-2 24 14 39 35 40 54 55 47 22 -9z m3426 28 c0 -5 14 -12 30 -16 17 -4 28 -11
24 -16 -3 -5 13 -9 35 -9 22 0 43 -4 46 -10 3 -5 1 -10 -5 -10 -6 0 -8 -4 -5
-10 3 -5 18 -10 33 -10 15 0 34 -4 42 -10 22 -13 -31 -31 -112 -37 -112 -9
-168 20 -65 33 28 4 45 9 37 11 -42 12 -43 13 -30 28 19 22 8 19 -67 -24 -74
-42 -93 -43 -67 -3 16 24 15 24 -22 -6 -39 -32 -79 -43 -72 -19 7 19 68 57 93
57 26 0 70 29 44 30 -9 0 -36 -7 -59 -15 -51 -18 -53 -18 -44 -4 19 32 164 67
164 40z m129 -12 c50 -30 32 -32 -50 -5 l-74 25 45 0 c29 1 57 -7 79 -20z
m-2344 -19 c19 0 19 0 0 -20 -11 -11 -42 -31 -70 -44 -44 -22 -47 -25 -23 -25
17 -1 46 13 72 33 55 42 126 61 170 46 18 -6 43 -9 56 -8 42 5 33 -20 -10 -27
-23 -4 -39 -9 -37 -11 2 -3 36 1 75 7 83 14 153 5 184 -22 21 -19 21 -20 3
-14 -11 4 -45 9 -75 11 l-55 5 40 -15 c22 -9 55 -16 73 -16 38 0 72 -15 72
-32 0 -7 -17 -9 -49 -6 -43 4 -48 3 -43 -14 8 -32 -56 -24 -109 14 -37 27 -41
28 -21 7 12 -14 19 -29 15 -32 -10 -10 -133 -8 -172 3 -32 9 -33 8 -17 -9 9
-9 16 -21 16 -26 0 -16 -127 3 -194 30 -61 24 -74 26 -120 18 -58 -11 -53 -14
62 -39 165 -35 145 -66 -26 -40 -59 9 -147 15 -197 14 l-90 -1 85 -7 c83 -6
133 -23 159 -53 19 -24 -1 -27 -63 -11 -50 13 -58 13 -71 0 -8 -8 -29 -17 -46
-21 -18 -4 -142 -81 -276 -172 -278 -186 -356 -243 -466 -337 -74 -62 -97 -72
-97 -42 0 16 114 125 205 197 97 76 177 131 345 239 168 108 251 150 300 151
34 1 34 1 -10 10 -97 20 -95 20 -79 30 29 20 -67 -4 -111 -28 -41 -21 -42 -23
-13 -18 17 4 34 2 37 -4 4 -6 -13 -13 -42 -17 -37 -5 -49 -10 -48 -23 1 -21
-46 -27 -94 -11 -47 15 -91 -2 -155 -61 -25 -23 -48 -40 -50 -37 -3 3 9 24 25
47 31 42 106 97 148 107 12 4 22 13 22 20 0 17 80 107 88 99 3 -3 -9 -23 -26
-44 -18 -22 -32 -42 -32 -45 0 -3 14 0 31 6 17 6 41 27 53 47 28 42 58 71 106
100 48 29 58 26 29 -6 -16 -18 -10 -15 20 9 43 36 129 74 140 62 3 -4 0 -9 -6
-11 -18 -6 -253 -163 -253 -168 0 -14 99 37 155 79 49 38 133 81 142 73 10
-11 -9 -27 -77 -67 -39 -23 -70 -42 -70 -44 0 -6 82 15 115 29 17 6 44 18 62
25 18 6 39 22 47 35 21 32 81 67 108 63 20 -3 15 -9 -34 -42 -32 -21 -58 -41
-58 -43 0 -8 56 10 71 23 8 8 40 27 70 44 30 16 50 30 46 30 -5 0 -17 -5 -28
-11 -11 -6 -25 -8 -32 -6 -18 7 35 27 58 22 11 -3 29 -5 40 -5z m-1575 -35 c0
-3 -18 -47 -40 -99 -22 -51 -54 -138 -70 -192 -27 -85 -40 -149 -76 -371 -9
-56 -24 -36 -24 30 0 131 59 396 111 499 39 77 79 138 90 138 5 0 9 -2 9 -5z
m2171 -55 c-6 -28 -11 -71 -11 -94 0 -68 -29 -205 -54 -254 l-23 -45 -7 80
c-3 45 -3 88 0 97 12 32 24 15 26 -36 1 -29 4 -1 8 62 5 93 12 128 35 183 15
37 30 66 32 63 3 -2 0 -28 -6 -56z m-2832 -51 c50 -102 58 -144 36 -209 -25
-74 -40 -76 -30 -4 14 96 9 129 -29 206 -20 40 -36 79 -36 86 0 27 21 -2 59
-79z m4101 82 c0 -29 -422 -184 -535 -197 -103 -11 -53 13 160 77 108 33 233
75 278 94 90 37 97 39 97 26z m-1157 -277 c-103 -207 -140 -295 -187 -439 -74
-225 -97 -279 -130 -301 -15 -9 -28 -15 -30 -13 -2 2 13 47 33 99 21 52 63
169 95 260 60 169 155 381 222 493 48 79 114 170 120 164 3 -2 -53 -121 -123
-263z m1157 232 c-14 -14 -235 -166 -430 -297 -47 -32 -159 -96 -250 -144
-202 -106 -284 -160 -470 -310 -80 -65 -169 -133 -197 -153 -29 -19 -53 -36
-53 -38 0 -6 98 35 171 71 73 37 101 42 52 9 -15 -10 -80 -48 -145 -84 -179
-100 -247 -161 -339 -300 -9 -14 -20 -20 -27 -16 -28 17 43 111 219 287 181
181 223 216 391 332 94 65 136 103 87 77 -34 -18 -204 -136 -263 -182 -27 -21
-51 -36 -55 -32 -17 18 226 202 322 243 47 20 64 38 28 28 -30 -7 -34 21 -6
39 16 10 34 14 53 9 70 -15 326 107 578 276 113 75 323 199 338 199 6 0 4 -6
-4 -14z m-4014 -131 c13 -27 24 -67 24 -87 0 -22 5 -38 11 -38 14 0 4 -101
-12 -132 -8 -15 -8 -19 0 -14 7 5 11 -5 11 -27 0 -38 -18 -97 -30 -97 -9 0
-24 93 -21 130 1 18 -1 21 -7 12 -14 -21 -24 31 -17 87 14 104 23 114 36 38 6
-34 7 -29 5 28 -2 61 -7 78 -39 130 -20 33 -37 65 -37 70 1 18 51 -49 76 -100z
m4270 23 c-19 -29 -45 -80 -57 -113 -12 -33 -28 -67 -35 -75 -19 -23 -54 -102
-54 -125 0 -11 7 -33 16 -50 18 -33 23 -119 11 -177 -13 -61 -24 -44 -30 45
-11 172 -52 195 -52 29 0 -80 4 -106 23 -147 27 -58 23 -129 -6 -123 -12 2
-18 17 -22 53 -3 28 -9 56 -14 63 -4 7 -16 36 -26 65 l-18 51 -16 -38 c-22
-54 -21 -64 25 -178 26 -68 38 -111 34 -128 -11 -49 -28 -80 -42 -80 -12 0
-14 8 -9 40 4 28 1 50 -10 72 -12 23 -13 36 -6 54 8 17 7 33 -5 63 -9 23 -20
41 -25 41 -10 0 -10 4 7 -115 7 -55 12 -102 9 -104 -9 -10 -24 16 -38 69 l-15
55 0 -70 c0 -50 7 -90 24 -140 27 -76 32 -110 14 -99 -16 10 -69 126 -69 152
0 12 -4 22 -9 22 -13 0 -25 -142 -17 -214 4 -33 15 -91 24 -128 l18 -68 12 58
c20 97 95 236 220 412 77 107 131 202 170 300 40 100 55 116 232 234 147 99
176 114 191 99 22 -22 -13 -54 -174 -162 -89 -60 -172 -120 -184 -133 -12 -12
-32 -52 -46 -88 -42 -113 -102 -221 -200 -360 -139 -199 -171 -271 -197 -455
-20 -138 -42 -135 -37 6 2 68 -1 81 -32 142 -30 60 -35 78 -39 169 -4 90 -2
111 21 182 15 45 41 128 58 186 42 140 178 457 242 565 48 81 154 211 164 201
2 -2 -11 -28 -31 -58z m68 -173 c-17 -234 -34 -306 -115 -467 -40 -81 -135
-218 -151 -218 -16 0 -7 25 36 99 123 210 169 348 201 610 16 122 32 198 41
188 2 -2 -3 -97 -12 -212z m-1721 167 c-17 -45 -86 -135 -177 -230 -67 -70
-170 -154 -180 -147 -3 3 -4 2 -1 -1 11 -15 -41 -67 -96 -94 -99 -51 -126 -30
-31 24 28 17 50 32 48 34 -3 2 -14 -2 -26 -8 -11 -6 -26 -10 -33 -7 -10 3 9
19 89 75 18 12 18 13 -4 8 -13 -2 -20 0 -16 6 3 5 15 7 26 5 12 -4 36 5 59 20
41 27 53 41 20 23 -25 -13 -54 -13 -46 0 3 6 -1 7 -9 4 -46 -18 20 53 77 82
31 17 31 10 -2 -31 -33 -40 47 32 110 100 117 125 212 193 192 137z m611 16
c-4 -7 -26 -38 -49 -68 -23 -30 -59 -81 -80 -112 -37 -57 -55 -71 -55 -45 0
18 94 154 138 200 35 36 61 50 46 25z m-3317 -95 c-2 -16 -4 -3 -4 27 0 30 2
43 4 28 2 -16 2 -40 0 -55z m2426 -26 c-41 -40 -83 -76 -94 -81 -10 -5 -35
-41 -54 -80 -45 -90 -89 -152 -104 -148 -7 1 -10 -2 -7 -7 3 -5 -3 -20 -13
-32 l-20 -24 5 45 c4 44 4 44 -15 -17 -10 -34 -62 -132 -114 -220 -53 -87
-100 -176 -106 -199 -11 -42 -155 -290 -219 -379 -39 -52 -32 -52 33 0 59 48
227 156 232 151 9 -9 -308 -236 -329 -236 -25 0 3 56 95 192 108 159 136 205
119 194 -12 -7 -32 70 -32 126 0 51 19 91 20 43 1 -16 7 -59 13 -95 l13 -65
19 35 c14 27 14 32 3 22 -13 -10 -16 -8 -22 19 -8 40 -6 147 3 179 5 18 9 7
13 -45 10 -110 15 -115 53 -52 30 49 32 61 32 133 -1 60 4 90 20 125 30 67 42
68 28 1 -17 -75 -25 -168 -13 -150 38 56 48 91 48 164 0 84 21 144 62 180 21
19 21 19 13 -1 -13 -31 -35 -137 -34 -165 0 -14 13 18 28 70 25 88 74 200 87
200 3 0 3 -19 0 -42 -3 -24 -8 -65 -11 -93 l-5 -50 19 35 c11 19 20 51 21 71
0 20 5 51 11 70 25 74 177 197 243 197 l34 0 -75 -71z m43 -13 c-40 -35 -56
-42 -56 -24 0 13 82 72 89 64 3 -3 -12 -21 -33 -40z m-1240 14 c-8 -12 -47
-56 -86 -99 -39 -43 -100 -117 -136 -166 -37 -48 -76 -98 -87 -110 -21 -24
-57 -31 -57 -13 0 37 113 204 199 293 54 58 138 117 164 117 17 0 17 -2 3 -22z
m-255 -32 c-67 -69 -200 -119 -215 -81 -3 10 -5 19 -4 20 2 1 46 17 99 34 53
17 105 38 115 46 35 27 38 15 5 -19z m507 -38 c4 -37 -22 -49 -121 -56 l-81
-5 34 30 c64 54 83 64 125 61 35 -3 40 -6 43 -30z m2850 -30 c4 -33 -37 -130
-52 -125 -14 5 -12 92 3 130 14 36 45 33 49 -5z m-4142 -116 c10 -26 14 -56
10 -74 -7 -37 -66 -129 -77 -122 -10 6 -12 84 -3 108 8 21 24 10 24 -17 0 -16
3 -18 12 -9 10 10 10 17 0 32 -13 22 -16 121 -5 185 l7 40 8 -50 c4 -27 14
-69 24 -93z m3344 123 c-31 -18 -251 -90 -302 -99 -22 -4 -39 -2 -43 4 -11 17
-2 21 92 40 48 10 122 29 163 43 88 29 130 35 90 12z m451 5 c37 -20 14 -90
-30 -90 -56 0 -54 98 2 100 5 0 17 -5 28 -10z m-1265 -81 c-7 -56 -60 -224
-85 -267 -18 -29 -13 8 9 79 10 35 26 97 35 137 25 120 52 154 41 51z m-1516
43 c0 -5 -27 -46 -59 -91 -32 -46 -83 -125 -112 -177 -49 -86 -69 -111 -69
-84 0 30 122 229 192 313 40 47 48 54 48 39z m-884 -134 c57 -85 91 -168 70
-168 -21 0 -72 66 -111 144 -37 74 -48 129 -20 106 8 -7 36 -44 61 -82z m2318
-41 c-6 -46 -21 -102 -33 -124 -21 -43 -61 -176 -60 -203 0 -8 20 24 44 72 43
84 65 113 65 86 0 -7 -22 -64 -49 -126 -27 -62 -53 -127 -56 -145 -11 -51 -34
-87 -54 -87 -26 0 -81 65 -81 95 0 37 25 31 71 -17 l40 -43 -35 68 c-23 43
-36 82 -36 105 1 36 2 35 35 -33 23 -48 34 -63 34 -47 1 13 -6 36 -14 52 -24
46 -29 112 -11 135 15 19 15 19 16 -10 1 -49 20 -5 31 71 11 78 36 145 48 126
5 -8 14 10 24 48 10 33 21 60 25 60 5 0 3 -38 -4 -83z m-2394 -83 c0 -37 -6
-60 -22 -84 -34 -50 -50 -48 -25 2 17 33 22 60 21 118 0 69 1 72 12 45 7 -17
13 -53 14 -81z m2840 77 c-11 -21 -47 -37 -58 -26 -8 8 38 44 56 45 9 0 10 -5
2 -19z m718 -23 c3 -18 -156 -224 -225 -290 -21 -21 -68 -54 -103 -73 -69 -37
-77 -49 -10 -15 76 39 63 14 -23 -41 -55 -36 -58 -39 -31 -39 28 0 27 -1 -21
-36 -68 -49 -90 -57 -305 -114 -103 -27 -223 -63 -266 -79 -107 -39 -196 -84
-183 -91 5 -4 -14 -23 -43 -42 -29 -20 -82 -62 -117 -94 -35 -32 -70 -59 -78
-60 -7 -1 -29 -16 -49 -33 -19 -17 -37 -31 -39 -31 -16 0 2 34 45 88 27 34 50
64 50 67 0 12 -62 -28 -137 -87 -112 -89 -197 -172 -261 -257 -47 -63 -57 -72
-67 -58 -10 14 -21 -3 -68 -101 -32 -64 -57 -122 -57 -129 0 -6 -5 -15 -12
-19 -8 -5 -10 7 -5 44 3 29 4 52 2 52 -2 0 -14 -32 -25 -70 -23 -76 -47 -97
-36 -31 3 22 9 48 12 58 11 34 -86 -82 -164 -196 -62 -91 -78 -109 -80 -90
-14 88 99 263 219 340 30 19 69 59 101 102 68 95 143 174 250 263 128 107 190
146 397 251 220 111 364 171 521 214 63 17 120 36 127 43 6 6 21 45 32 86 26
91 101 209 101 158 0 -7 8 1 19 17 19 33 76 85 92 85 5 0 -17 -51 -48 -113
-54 -104 -59 -110 -66 -85 -4 16 -10 28 -12 28 -2 0 -11 -23 -19 -51 -9 -28
-25 -66 -37 -85 -11 -19 -19 -34 -16 -34 33 0 86 38 162 115 50 50 123 116
163 145 66 48 71 55 52 62 l-21 8 20 27 c20 28 46 111 38 119 -2 3 -21 -24
-41 -58 -20 -35 -50 -79 -66 -98 -26 -31 -29 -33 -30 -13 0 12 4 33 10 47 5
14 8 26 5 26 -7 0 -83 -145 -90 -172 -4 -16 -12 -28 -17 -28 -17 0 -3 83 21
131 29 58 90 128 98 111 3 -8 11 -5 24 12 20 25 79 66 102 70 6 1 32 13 57 26
79 41 142 49 148 18z m-1538 -77 c-12 -17 -27 -31 -33 -31 -7 0 -35 -15 -62
-33 -90 -60 -117 -56 -45 6 41 34 151 99 158 92 3 -2 -6 -18 -18 -34z m-340 9
c0 -5 -11 -17 -25 -26 -30 -20 -286 -116 -292 -110 -8 8 12 18 315 145 1 1 2
-3 2 -9z m0 -153 c-7 -125 -20 -161 -39 -106 -18 53 -13 119 14 178 14 30 27
52 28 50 2 -2 0 -57 -3 -122z m-250 107 c0 -15 -102 -106 -136 -120 l-39 -16
49 53 c67 74 85 89 107 89 10 0 19 -3 19 -6z m-135 -52 c-28 -26 -65 -69 -84
-96 l-33 -47 89 44 c76 39 183 70 183 54 0 -11 -181 -106 -229 -121 -79 -23
-275 -131 -378 -208 -127 -95 -217 -202 -349 -413 -100 -160 -122 -225 -114
-325 2 -23 5 -11 10 36 4 40 13 80 19 90 13 24 15 -141 2 -197 -6 -28 -3 -48
14 -90 12 -30 30 -76 40 -103 l18 -49 22 59 c29 76 86 208 93 214 14 14 -10
-117 -37 -201 -34 -107 -38 -155 -16 -244 8 -33 14 -77 15 -98 0 -23 4 -36 10
-32 6 3 10 19 10 35 0 16 13 65 29 109 16 43 32 103 36 132 3 30 9 63 11 74 5
18 3 18 -15 -4 -12 -13 -21 -34 -21 -47 0 -12 -4 -26 -10 -29 -21 -13 -20 48
3 146 14 57 33 156 42 219 10 63 21 122 26 130 19 33 7 -164 -16 -265 -5 -25
-2 -22 23 19 47 76 95 129 183 200 105 84 183 124 341 175 136 44 138 45 138
34 0 -20 -106 -75 -200 -104 -58 -17 -136 -47 -173 -67 -76 -39 -194 -144
-246 -218 -34 -48 -34 -48 -5 -22 37 35 254 137 254 120 0 -10 -69 -51 -178
-107 -60 -31 -104 -61 -127 -88 -45 -53 -45 -68 1 -28 19 17 97 63 173 101
139 69 275 148 384 222 32 22 61 37 64 34 11 -11 -135 -143 -227 -206 -267
-180 -428 -360 -464 -520 -30 -134 -37 -238 -21 -340 18 -118 19 -138 4 -123
-6 6 -24 85 -39 175 -15 91 -33 174 -39 186 -6 11 -11 37 -11 56 0 24 -8 43
-24 59 -14 14 -41 56 -60 93 -20 38 -54 94 -75 124 -26 37 -52 96 -80 184 -23
71 -40 131 -37 133 2 2 14 -11 27 -29 13 -18 51 -62 85 -98 57 -60 92 -115 80
-128 -3 -3 -28 19 -56 49 -27 30 -50 52 -50 49 0 -11 30 -101 41 -122 6 -13
22 -34 35 -48 12 -14 35 -51 49 -82 15 -32 28 -58 31 -58 4 0 -3 70 -17 149
-5 30 -20 82 -32 115 -13 34 -32 83 -41 109 -24 64 -53 96 -144 161 -42 30
-102 77 -132 104 -46 42 -52 51 -37 57 21 9 92 -26 171 -84 30 -23 58 -41 61
-41 15 0 -10 71 -50 140 -24 41 -50 97 -59 123 -22 65 -20 186 3 272 11 39 24
90 31 114 6 23 13 41 16 39 7 -8 74 -350 74 -380 0 -15 4 -28 9 -28 15 0 23
119 16 244 -5 82 -3 135 5 165 11 42 11 44 -21 77 -19 19 -102 80 -187 135
-107 71 -152 106 -150 118 5 22 52 16 103 -14 47 -28 184 -148 236 -208 21
-23 39 -40 40 -37 2 3 19 36 38 74 25 49 48 79 85 108 43 34 135 88 151 88 19
0 -10 -72 -115 -288 -67 -136 -127 -269 -135 -297 -45 -155 -71 -466 -43 -519
14 -26 15 -25 26 61 13 95 45 173 140 331 28 45 46 85 41 88 -5 3 -9 29 -9 59
0 77 34 160 87 215 43 44 45 44 38 16 -3 -16 -24 -58 -46 -94 -31 -53 -39 -75
-39 -115 0 -43 2 -48 15 -37 8 7 15 27 15 44 0 17 5 49 11 70 9 34 12 37 21
22 5 -10 8 -33 6 -52 -4 -34 -4 -34 14 -16 11 10 21 38 23 63 13 135 58 235
124 272 35 21 41 9 10 -19 -32 -29 -79 -128 -86 -182 -6 -46 -6 -47 14 -29 11
9 26 36 33 60 26 89 95 183 173 239 50 36 40 11 -27 -67 -60 -71 -122 -172
-111 -183 2 -3 27 15 55 38 35 29 59 61 75 96 13 29 41 79 63 111 35 51 52 65
122 101 110 56 126 54 62 -9 -35 -34 -51 -57 -47 -68 3 -9 -2 -26 -10 -37 -8
-10 -15 -14 -15 -7 0 6 5 15 10 18 6 3 10 11 10 18 0 6 -21 -9 -46 -33 -40
-39 -45 -42 -39 -20 4 14 24 48 43 75 20 28 27 42 16 33 -11 -10 -25 -18 -30
-18 -11 0 -97 -157 -92 -170 2 -5 38 11 81 36 68 39 81 52 98 91 32 76 109
151 154 153 15 0 8 -11 -30 -48z m681 19 c-33 -62 -201 -171 -184 -118 3 9
179 141 196 146 1 1 -4 -12 -12 -28z m-81 -131 c-16 -17 -30 -37 -31 -46 -6
-38 -117 -124 -161 -124 -40 0 -15 29 56 65 63 32 113 64 100 65 -3 0 -30 -13
-60 -30 -61 -34 -78 -37 -58 -14 19 23 172 125 178 119 2 -3 -8 -19 -24 -35z
m-360 -299 c-4 -17 -9 -21 -17 -13 -13 13 -6 255 8 287 10 23 18 -235 9 -274z
m-170 225 c26 -19 15 -36 -46 -73 -48 -29 -65 -33 -148 -37 -76 -4 -105 -11
-156 -34 -59 -28 -105 -65 -105 -85 0 -12 100 0 153 19 48 17 58 12 23 -11
-38 -25 -96 -44 -134 -45 -32 0 -148 -47 -139 -56 2 -3 28 1 57 7 85 18 81 -4
-7 -34 -91 -31 -163 -44 -163 -29 0 5 55 61 123 123 157 145 223 181 323 178
57 -2 81 3 136 26 37 16 66 30 64 33 -2 2 -32 -4 -66 -12 -115 -30 -154 -15
-66 25 48 22 124 25 151 5z m735 -42 c0 -3 -32 -58 -72 -122 -69 -114 -185
-343 -228 -453 -39 -100 -73 -169 -82 -169 -43 0 24 218 138 444 67 131 121
213 176 267 36 34 68 50 68 33z m-289 -42 c-12 -22 -62 -62 -108 -86 -39 -20
-43 -20 -43 -2 0 12 134 105 153 106 4 0 3 -8 -2 -18z m-332 -219 c-6 -24 -16
-40 -22 -36 -14 8 -2 190 15 228 12 28 13 25 16 -60 2 -49 -2 -109 -9 -132z
m1551 193 c0 -11 -33 -36 -46 -36 -20 0 -7 19 20 30 27 11 26 11 26 6z m-1850
-36 c0 -16 -58 -37 -138 -51 -79 -13 -97 -9 -60 15 49 32 198 59 198 36z m610
-25 c0 -19 -62 -60 -136 -90 -105 -43 -82 -10 41 59 90 50 95 52 95 31z m1815
-4 c-6 -5 -75 -32 -155 -59 -80 -28 -212 -80 -295 -115 -288 -124 -514 -199
-543 -180 -40 25 -18 65 46 82 20 6 132 35 247 66 116 31 314 91 440 135 220
75 281 91 260 71z m10 -134 c-9 -51 -24 -108 -33 -127 l-17 -35 -3 64 c-2 41
2 78 12 102 l15 37 -69 -51 c-38 -29 -88 -62 -112 -73 -132 -66 -128 -64 -128
-48 0 29 90 102 187 153 54 27 112 59 128 70 17 12 32 16 33 10 2 -5 -4 -51
-13 -102z m-2235 79 c0 -3 -17 -10 -37 -16 -21 -7 -119 -47 -218 -88 -147 -62
-187 -83 -222 -118 -23 -24 -63 -55 -89 -70 -38 -22 -50 -25 -65 -16 -25 16
-110 -34 -209 -123 -115 -104 -136 -108 -75 -17 47 70 91 100 270 188 83 41
184 95 225 120 86 53 182 94 290 123 70 19 130 26 130 17z m331 -49 c-30 -32
-115 -71 -137 -63 -16 6 -16 8 -2 22 16 16 150 74 157 68 3 -2 -5 -15 -18 -27z
m2374 -17 c-8 -14 -83 -49 -103 -50 -25 0 0 22 51 46 52 24 65 25 52 4z
m-3155 -58 c0 -22 -50 -48 -180 -93 -131 -45 -172 -50 -116 -14 13 9 68 32
121 51 53 19 109 41 124 49 30 16 51 19 51 7z m174 -93 c-20 -30 -47 -95 -66
-155 -17 -57 -36 -104 -41 -104 -5 0 -7 29 -5 68 5 80 44 168 95 213 50 43 56
35 17 -22z m-614 -16 c-36 -113 -67 -192 -74 -186 -12 12 -6 114 10 151 15 36
60 92 75 92 4 0 -1 -26 -11 -57z m733 5 c-4 -7 -24 -38 -45 -69 -20 -30 -43
-71 -51 -91 -19 -45 -37 -57 -37 -26 0 40 49 126 93 163 43 37 53 43 40 23z
m-234 -55 c-67 -74 -103 -131 -170 -268 -60 -125 -78 -119 -34 11 33 98 80
176 142 235 96 92 141 108 62 22z m381 44 c0 -7 -32 -37 -72 -67 -39 -30 -82
-63 -95 -73 -39 -31 -26 -4 29 57 70 78 138 119 138 83z m1150 -54 c0 -5 -67
-40 -149 -80 -109 -53 -156 -82 -177 -108 -93 -113 -90 -109 -67 -97 33 18 38
14 17 -10 -10 -13 -2 -8 20 11 21 18 49 37 62 43 13 6 24 19 24 28 0 31 126
104 200 116 l42 7 -16 -25 c-19 -30 -102 -89 -198 -142 -36 -20 -93 -60 -125
-89 -81 -72 -163 -134 -260 -196 -46 -29 -83 -55 -83 -57 0 -7 211 101 297
151 43 26 106 74 140 108 34 33 65 58 68 55 9 -9 -85 -129 -170 -214 -88 -89
-150 -135 -330 -246 -66 -41 -143 -89 -172 -107 -54 -35 -182 -75 -267 -86
l-51 -6 38 24 c55 35 55 39 0 15 -54 -22 -87 -19 -77 7 4 8 41 33 83 55 69 36
96 61 296 271 339 356 459 448 704 545 80 31 151 44 151 27z m1121 -46 c-57
-40 -390 -360 -363 -350 40 16 -8 -40 -160 -189 -207 -201 -264 -249 -428
-360 -223 -151 -372 -226 -454 -229 -17 -1 -23 -3 -13 -6 56 -15 -22 -50 -153
-69 -156 -22 -241 -16 -182 14 20 11 231 80 357 117 201 59 639 344 791 514
l39 44 -32 -7 c-18 -4 -34 -3 -37 3 -8 12 28 31 100 55 57 19 111 68 143 133
11 23 59 76 108 121 49 44 106 96 128 117 l40 37 -60 -32 c-97 -53 -183 -118
-226 -173 -57 -73 -110 -113 -214 -163 l-90 -42 53 5 c28 3 52 3 52 0 0 -3
-43 -28 -96 -56 -121 -65 -353 -211 -334 -211 7 0 72 27 144 61 148 69 202 90
210 82 11 -12 -459 -263 -491 -263 -20 0 -16 16 14 61 25 38 175 165 318 268
33 24 98 83 145 131 47 48 112 104 145 125 118 75 339 198 424 237 47 21 104
47 126 57 63 29 61 13 -4 -32z m-366 -55 c-6 -5 -37 -19 -70 -32 -113 -43
-211 -100 -311 -180 -82 -66 -101 -86 -111 -119 -17 -57 -64 -161 -74 -161
-19 0 -16 21 14 81 17 35 33 69 35 74 2 6 -16 -13 -41 -40 -24 -28 -90 -88
-146 -134 -73 -61 -115 -105 -151 -158 -28 -41 -50 -79 -50 -84 0 -10 36 7 85
40 17 12 34 21 38 21 15 0 -81 -105 -112 -123 -28 -16 -32 -16 -37 -3 -3 9 -1
30 5 47 6 18 11 42 11 53 0 26 34 92 64 125 11 13 71 65 131 116 61 51 160
139 220 195 141 130 212 184 302 227 94 45 229 82 198 55z m-334 -59 c-29 -40
-179 -184 -308 -296 -183 -159 -297 -295 -387 -458 -20 -36 -46 -75 -57 -85
-22 -19 -22 -19 -14 6 34 114 97 224 191 330 91 102 95 108 57 81 -59 -40
-138 -118 -181 -178 -53 -71 -130 -212 -106 -192 36 29 -17 -53 -69 -108 l-50
-53 69 26 c110 42 267 92 296 96 50 6 31 -16 -39 -45 -37 -16 -124 -48 -193
-72 -254 -87 -483 -194 -555 -257 -51 -45 -210 -281 -241 -358 -13 -30 -27
-83 -33 -117 -10 -63 -51 -223 -56 -223 -6 0 -101 162 -134 228 -17 34 -45
102 -61 150 -21 63 -30 78 -30 56 0 -102 48 -220 164 -397 l64 -98 12 38 c29
88 136 257 202 319 72 68 184 134 225 134 16 -1 16 -2 -2 -17 l-20 -16 20 7
c34 12 75 19 75 12 0 -3 -45 -35 -100 -72 -95 -63 -118 -92 -64 -78 31 8 70
-33 162 -171 82 -124 223 -317 228 -312 2 2 9 30 15 63 20 114 41 194 48 190
4 -3 4 18 0 47 -16 109 -8 122 37 60 14 -21 24 -31 21 -22 -30 91 -31 99 -13
193 19 102 36 142 36 88 0 -18 -5 -42 -10 -52 -12 -22 -3 -73 11 -64 5 3 9 -4
9 -16 0 -12 7 -35 16 -52 9 -17 22 -50 29 -72 l12 -41 7 50 c9 63 71 255 102
317 29 57 31 79 3 26 -29 -56 -43 -49 -36 20 3 31 9 68 13 81 15 50 -15 10
-32 -43 -18 -58 -12 -144 8 -115 12 17 4 -25 -13 -68 l-11 -28 -15 50 c-25 84
-14 149 40 241 43 72 61 82 37 20 -7 -20 -5 -37 11 -73 l20 -47 21 35 c11 19
39 57 63 84 44 52 85 114 85 128 0 5 -20 -18 -45 -51 -24 -32 -51 -65 -60 -72
-13 -10 -15 -9 -15 9 0 30 48 142 71 166 25 26 25 5 -2 -46 -30 -60 -17 -57
25 6 20 30 40 55 45 55 9 0 -2 -69 -17 -111 -6 -14 -24 -47 -40 -73 -17 -27
-34 -62 -37 -80 -14 -68 -38 -127 -56 -136 -25 -14 -24 -12 12 73 16 40 26 68
20 62 -29 -30 -89 -156 -128 -273 -38 -114 -44 -145 -46 -225 -2 -103 24 -387
54 -579 21 -139 24 -218 9 -218 -5 0 -10 4 -10 10 0 5 -11 88 -25 183 -14 96
-29 235 -35 308 -5 74 -14 150 -20 169 -5 19 -10 55 -10 79 0 25 -6 52 -15 61
-8 9 -26 43 -40 76 -29 71 -33 50 -5 -31 21 -61 20 -76 -4 -56 -11 9 -15 9
-18 0 -3 -8 -10 -6 -22 7 -18 18 -18 17 -11 -6 13 -41 32 -75 70 -120 19 -23
34 -45 31 -47 -8 -8 -76 29 -90 49 -12 17 -15 3 -20 -109 -8 -156 -36 -393
-48 -393 -4 0 -8 11 -8 24 0 13 -9 67 -20 120 -19 94 -21 98 -93 189 -77 96
-223 306 -272 391 -21 36 -30 44 -36 33 -5 -9 6 -58 31 -133 51 -151 113 -374
107 -381 -10 -9 -25 32 -75 193 -49 159 -107 310 -122 319 -4 3 -20 -12 -36
-32 -30 -40 -33 -38 36 -17 15 5 20 2 20 -14 0 -31 -28 -54 -63 -50 -26 2 -34
-2 -50 -31 l-20 -33 31 16 c33 17 72 21 72 8 0 -15 -46 -52 -55 -45 -4 5 -5 3
-2 -3 4 -6 -5 -22 -19 -35 -42 -39 -91 -112 -102 -149 -9 -32 -10 -30 -11 32
-1 53 6 87 33 160 51 142 50 137 29 110 -44 -57 -95 -151 -109 -200 l-16 -54
33 -64 c17 -35 29 -67 25 -71 -9 -9 -29 20 -78 114 -23 46 -76 124 -117 175
-125 155 -153 251 -131 435 7 56 16 103 20 103 4 0 12 -19 19 -42 21 -70 139
-349 175 -412 l33 -59 17 92 c11 60 14 97 8 104 -6 7 -15 32 -22 56 -20 74 21
189 57 160 10 -9 13 -3 13 33 0 46 37 135 67 160 15 12 16 10 9 -12 -4 -14 -9
-43 -12 -65 l-4 -40 13 40 c26 76 89 183 144 245 31 34 117 112 192 173 75 61
176 147 225 190 89 78 141 114 402 277 75 47 175 119 223 160 48 41 134 112
192 157 57 45 115 93 128 107 32 34 48 33 22 -1z m-1661 -28 c-24 -28 -155
-103 -250 -141 -52 -22 -133 -58 -180 -82 l-84 -42 44 46 c46 47 165 111 362
194 103 44 128 49 108 25z m-740 -66 c0 -55 -41 -302 -56 -333 -13 -28 -13
-20 -10 89 4 133 31 275 53 275 8 0 13 -12 13 -31z m587 -270 c-41 -79 -81
-163 -90 -186 -16 -41 -37 -58 -37 -30 0 26 50 160 77 206 32 56 114 164 119
158 2 -2 -29 -69 -69 -148z m2252 142 c21 -14 5 -43 -21 -39 -29 4 -39 48 -11
48 10 0 24 -4 32 -9z m-3134 -21 c4 -6 10 -8 15 -5 12 7 86 -80 99 -115 16
-46 1 -35 -58 41 -29 39 -63 74 -75 79 -16 7 -17 9 -4 9 9 1 20 -4 23 -9z
m-55 -98 c34 -51 43 -104 32 -182 -8 -60 -25 -74 -30 -24 -2 20 -17 44 -43 70
-29 28 -39 46 -39 69 l1 30 22 -26 c12 -15 32 -44 45 -65 l23 -39 -4 62 c-3
52 -9 71 -39 115 -50 75 -55 86 -24 58 15 -13 40 -44 56 -68z m3469 -65 c69
-49 79 -53 47 -19 -19 21 -25 32 -15 32 7 0 42 -30 77 -67 65 -69 126 -177
138 -243 5 -30 0 -25 -39 40 -46 75 -165 216 -175 206 -3 -3 16 -29 43 -56 73
-80 43 -73 -38 8 -117 116 -137 170 -38 99z m746 0 c24 -59 30 -90 14 -85 -19
5 -59 86 -52 104 9 23 23 16 38 -19z m-795 -31 c0 -7 -24 -38 -52 -68 -40 -41
-80 -67 -165 -109 -62 -31 -113 -54 -113 -51 0 17 50 79 97 122 56 49 209 134
225 124 4 -3 8 -11 8 -18z m888 -69 c17 -70 32 -160 28 -165 -12 -11 -36 52
-45 119 -6 41 -14 84 -18 95 -6 16 -4 17 9 6 8 -7 20 -31 26 -55z m-323 -137
c32 -150 50 -209 82 -272 13 -27 19 -48 14 -48 -19 0 -111 125 -126 170 -22
67 -27 306 -6 285 5 -6 21 -66 36 -135z m-252 47 c32 -39 44 -100 32 -164 l-7
-38 -14 25 c-7 14 -13 50 -14 81 0 49 -5 62 -35 100 -19 24 -35 48 -35 53 0
14 43 -19 73 -57z m-182 21 c54 -25 100 -69 79 -76 -20 -7 -102 32 -125 60
-24 28 -33 54 -17 46 4 -2 32 -15 63 -30z m825 -43 c4 -20 3 -27 -3 -20 -6 6
-14 24 -17 40 -5 20 -4 27 3 20 5 -5 13 -23 17 -40z m-3776 10 c0 -13 -57
-116 -100 -180 -65 -98 -68 -103 -46 -86 9 8 29 35 44 60 20 35 28 41 30 27 4
-18 -73 -141 -104 -166 -19 -17 -18 -7 11 107 26 98 45 134 114 206 32 34 51
46 51 32z m398 -42 c-25 -27 -58 -68 -73 -93 l-27 -45 37 35 c25 23 36 29 31
17 -3 -11 -9 -30 -12 -43 -3 -13 -11 -21 -17 -17 -6 4 -7 1 -2 -7 10 -16 29 7
47 57 7 18 16 33 21 33 16 0 -2 -94 -23 -120 -11 -14 -28 -41 -37 -60 -23 -47
-63 -90 -84 -90 -36 0 -35 52 3 142 13 30 17 52 11 62 -7 13 -22 7 -91 -39
-45 -29 -136 -94 -202 -144 -66 -50 -125 -91 -131 -91 -20 0 233 204 366 296
55 37 126 88 159 111 32 24 61 43 64 43 4 0 -14 -21 -40 -47z m-850 -104 c2
-91 0 -111 -10 -101 -8 8 -14 51 -16 118 -4 87 -2 106 9 102 11 -3 15 -33 17
-119z m1486 90 c-31 -35 -137 -107 -197 -134 -53 -25 -343 -81 -370 -72 -20 6
39 55 74 61 19 2 82 9 141 16 58 6 128 18 155 27 51 18 144 69 184 102 31 26
37 26 13 0z m1461 -41 c65 -33 160 -104 201 -151 38 -43 80 -135 72 -158 -2
-6 -21 21 -42 60 -22 39 -47 78 -57 87 -17 15 -17 12 2 -41 23 -65 18 -84 -8
-36 -41 74 -80 126 -113 150 l-35 26 17 -25 c41 -59 69 -112 64 -117 -3 -4
-17 -1 -31 5 -14 7 -34 12 -43 12 -9 -1 17 -17 58 -38 57 -28 102 -62 186
-142 61 -58 142 -132 179 -165 119 -103 335 -317 335 -331 0 -27 -21 -13 -103
64 -45 43 -132 123 -193 178 l-111 101 -54 -4 c-30 -1 -119 -7 -199 -11 -165
-10 -193 -19 -347 -117 -132 -84 -143 -68 -13 20 196 131 450 207 541 161 l32
-16 -19 21 c-31 34 -132 112 -229 177 -50 32 -122 90 -160 126 -65 62 -73 67
-105 62 -19 -3 -98 -37 -174 -75 -77 -39 -141 -69 -143 -67 -13 12 264 166
300 166 19 0 15 6 -25 44 -27 24 -48 47 -48 51 0 9 117 0 143 -10 12 -5 17 -2
17 10 0 14 6 15 33 10 17 -4 50 -16 72 -27z m-2045 -43 c0 -39 -27 -115 -41
-115 -5 0 -9 4 -9 8 0 11 21 123 26 140 7 24 24 1 24 -33z m1420 30 c-13 -15
-223 -86 -293 -99 -52 -10 -41 7 26 40 54 27 214 73 256 74 20 0 21 -2 11 -15z
m1170 -65 c44 -22 110 -77 110 -91 0 -9 -85 21 -119 43 -11 6 -24 23 -30 35
-18 40 -16 41 39 13z m-273 -82 c82 -77 182 -239 183 -295 0 -37 -15 -27 -40
27 -13 27 -34 57 -46 65 -22 14 -24 14 -30 -10 -3 -14 -13 -25 -21 -25 -10 0
-12 8 -8 33 8 41 -21 121 -62 174 -74 94 -61 110 24 31z m-2172 -27 c-259 -99
-317 -130 -439 -236 -48 -43 -90 -74 -94 -71 -16 17 168 173 274 232 60 34
138 61 279 99 89 24 82 15 -20 -24z m175 31 c0 -11 -199 -106 -272 -130 -43
-14 -54 -22 -46 -30 17 -17 -35 -34 -68 -22 -51 20 -26 43 101 88 66 24 154
57 195 72 86 32 90 33 90 22z m2381 -63 c30 -21 38 -39 17 -39 -6 0 -31 12
-56 26 -71 42 -40 11 53 -52 57 -39 89 -68 100 -91 9 -19 14 -37 12 -40 -10
-9 -156 67 -167 87 -6 11 -7 20 -3 20 12 0 127 -71 136 -84 5 -7 7 -4 5 8 -2
11 -33 35 -78 61 -81 46 -141 111 -118 127 19 12 65 2 99 -23z m-1215 -161
l-6 -70 42 35 c64 51 103 76 142 92 62 26 39 -1 -61 -73 -123 -88 -149 -116
-208 -227 -26 -49 -77 -135 -113 -190 -82 -126 -113 -187 -153 -300 -36 -105
-61 -156 -84 -175 -14 -12 -15 -8 -12 42 2 30 11 66 20 79 19 27 22 14 6 -28
-6 -17 -6 -24 0 -18 5 6 19 46 31 90 30 108 57 166 147 309 90 143 162 291
205 421 17 52 36 92 41 88 6 -3 7 -34 3 -75z m624 73 c0 -5 -8 -11 -17 -14
-10 -2 -42 -14 -71 -26 -67 -27 -57 -7 12 25 54 25 76 30 76 15z m-3171 -94
c84 -117 94 -124 70 -45 -22 73 -24 91 -7 86 21 -7 76 -119 125 -257 45 -128
48 -142 48 -237 0 -86 -3 -105 -19 -123 -10 -11 -22 -18 -26 -16 -5 3 -6 68
-3 145 3 77 3 140 0 140 -4 0 -12 -20 -18 -45 -15 -58 -44 -65 -32 -7 4 20 6
50 5 66 -2 42 -46 110 -98 153 -91 76 -157 187 -127 216 13 14 23 5 82 -76z
m-236 -3 c59 -71 128 -212 156 -315 23 -84 20 -112 -12 -107 -23 3 -28 14 -93
193 -20 55 -56 140 -80 189 -24 49 -44 93 -44 98 0 20 27 -1 73 -58z m3992 29
c17 -16 54 -41 81 -57 48 -29 47 -44 -2 -32 -26 7 -124 92 -124 107 0 15 11
10 45 -18z m-747 5 c-3 -7 -30 -31 -61 -52 -87 -59 -189 -173 -253 -283 -58
-97 -79 -107 -51 -25 24 69 109 211 161 269 56 62 75 63 26 0 l-33 -42 34 31
c93 85 190 141 177 102z m-1138 -53 c-14 -8 -34 -15 -45 -15 -14 0 -16 -3 -7
-8 21 -14 -31 -53 -218 -167 -287 -176 -344 -222 -407 -331 -36 -63 -37 -51
-6 51 25 83 51 115 109 141 65 29 166 85 161 90 -2 2 -27 -5 -56 -16 -56 -22
-71 -20 -71 10 0 25 45 48 175 89 97 31 299 120 291 128 -2 2 -33 -1 -67 -6
-134 -23 -131 -23 -127 -9 4 11 207 55 268 57 l25 0 -25 -14z m355 -2 c-18
-43 -35 -108 -35 -134 0 -41 -11 -64 -21 -47 -18 28 -10 110 16 155 25 42 55
61 40 26z m1593 -63 c89 -59 110 -111 75 -188 l-16 -37 -6 45 c-7 51 -21 73
-73 119 -36 31 -78 103 -78 132 0 10 6 7 18 -7 9 -12 46 -40 80 -64z m-2698
-12 c-37 -57 -87 -171 -101 -230 -16 -77 -33 -75 -26 1 6 76 43 157 97 215 50
54 60 59 30 14z m450 3 c0 -15 -50 -47 -119 -75 -76 -31 -71 -30 -71 -11 0 22
58 83 83 88 43 8 107 7 107 -2z m2726 -53 c67 -40 182 -143 172 -153 -4 -5
-25 4 -46 18 -21 14 -76 44 -122 67 -82 41 -130 78 -130 101 0 20 69 2 126
-33z m-4830 0 c65 -69 100 -155 89 -218 -7 -44 -25 -55 -25 -16 0 44 -36 142
-73 198 -21 30 -37 58 -37 62 0 14 18 4 46 -26z m846 -42 c31 -43 36 -66 14
-66 -21 0 -89 97 -82 116 8 21 27 7 68 -50z m2363 -28 c-24 -46 -50 -108 -58
-139 -8 -31 -27 -76 -42 -100 l-27 -44 7 48 c9 64 28 118 70 193 32 56 81 124
90 124 2 0 -16 -37 -40 -82z m-791 16 c9 -8 16 -22 16 -29 0 -17 -27 -45 -44
-45 -7 0 -21 9 -31 20 -17 18 -17 21 -1 45 19 29 38 32 60 9z m-1773 -96 c23
-44 25 -76 3 -35 -32 60 -23 16 16 -70 22 -50 40 -106 40 -124 l0 -33 -30 47
c-36 56 -48 62 -21 9 34 -67 56 -161 52 -226 -1 -26 -18 -9 -24 24 -3 14 -3
-11 0 -55 3 -44 8 -83 12 -88 4 -4 22 32 40 80 43 118 44 122 21 93 l-20 -25
0 41 c0 28 8 51 29 80 15 21 32 53 37 69 20 67 15 -102 -6 -204 -45 -224 -193
-490 -161 -290 13 75 -4 547 -22 634 -8 39 -17 87 -21 109 -5 38 -5 38 16 20
11 -11 29 -36 39 -56z m2839 43 c0 -18 -248 -201 -273 -201 -27 0 114 115 218
178 59 36 55 34 55 23z m-909 -111 c6 -30 13 -63 15 -72 3 -10 1 -18 -3 -18
-13 0 -43 100 -43 142 0 40 14 61 18 26 1 -12 7 -48 13 -78z m-227 29 c17 -25
12 -46 -15 -54 -41 -13 -68 43 -31 64 24 15 29 14 46 -10z m2250 -71 c-24 -45
-30 -14 -7 37 14 34 18 36 21 18 2 -12 -5 -37 -14 -55z m-2017 -126 c5 -36 3
-44 -8 -40 -32 10 -76 197 -53 221 9 9 53 -123 61 -181z m1604 88 c47 -47 59
-78 33 -87 -18 -6 -139 91 -142 115 -3 19 1 22 28 22 24 0 42 -11 81 -50z
m-3217 16 c37 -22 89 -86 69 -86 -12 1 -130 109 -119 110 5 0 28 -11 50 -24z
m114 -14 c56 -43 130 -156 137 -210 11 -81 26 -103 162 -240 128 -129 162
-173 91 -119 -51 40 -194 190 -263 277 -37 46 -73 106 -90 147 -18 46 -41 82
-71 110 -24 24 -44 46 -44 51 0 18 45 9 78 -16z m1642 -17 c-14 -37 -5 -43 19
-14 25 29 25 24 6 -31 -15 -43 -111 -206 -127 -216 -4 -3 -6 23 -4 57 4 49 13
75 41 120 19 31 35 61 35 66 0 12 31 55 36 50 3 -2 0 -17 -6 -32z m1903 18
c-3 -10 -18 -34 -33 -53 -15 -19 -35 -50 -44 -68 -10 -19 -20 -32 -22 -29 -12
12 19 87 52 125 37 44 58 54 47 25z m-1375 -47 c-42 -37 -137 -91 -145 -83 -9
10 50 58 107 88 72 37 83 36 38 -5z m-2227 -43 c29 -19 99 -110 99 -128 0 -2
-18 5 -40 16 -21 10 -45 19 -52 19 -7 -1 2 -7 19 -15 33 -14 137 -105 129
-112 -7 -7 -98 44 -134 74 -18 16 -34 36 -35 45 -2 9 -9 24 -17 33 -13 16 -12
16 23 1 49 -20 47 -12 -2 14 -43 22 -71 54 -71 83 0 20 12 16 81 -30z m217
-53 c26 -39 52 -121 52 -164 l-1 -31 -23 29 c-13 15 -26 48 -30 73 -3 25 -15
65 -26 90 -23 52 -7 54 28 3z m3348 -27 c-25 -83 -34 -102 -72 -154 -30 -41
-74 -70 -74 -49 0 4 23 36 51 71 69 87 81 113 27 62 -54 -53 -67 -55 -38 -6
24 40 113 143 119 137 2 -2 -4 -30 -13 -61z m-4467 17 c86 -43 106 -60 69 -60
-26 0 -188 79 -188 92 0 18 44 6 119 -32z m1181 -27 c12 -15 24 -40 27 -55 3
-15 9 -25 14 -23 12 8 36 -33 79 -132 51 -120 55 -134 36 -127 -25 10 -55 67
-77 145 -11 40 -25 80 -30 88 -8 13 -9 12 -5 -4 23 -88 33 -145 25 -145 -20 0
-48 66 -55 127 -3 36 -17 84 -29 109 -25 49 -17 58 15 17z m2330 -29 c0 -16
-56 -44 -90 -44 -27 0 -26 25 2 44 30 21 88 21 88 0z m543 0 c11 -11 -12 -43
-51 -69 -57 -39 -122 -30 -122 16 0 23 14 31 80 45 66 15 85 16 93 8z m-2929
-157 c60 -40 10 -50 -79 -16 -31 11 -68 31 -82 44 l-27 22 -47 -66 c-86 -122
-218 -251 -257 -251 -5 0 -13 7 -16 16 -6 15 96 120 266 272 l58 52 79 -28
c43 -16 91 -36 105 -45z m3301 -2 c-16 -34 -49 -75 -87 -110 -106 -95 -99 -60
13 67 37 42 73 87 80 100 25 47 20 -4 -6 -57z m-275 -1 c-6 -32 -10 -84 -11
-114 0 -30 -4 -64 -8 -74 -7 -18 -8 -18 -14 5 -12 43 -7 135 8 180 24 70 25
72 30 67 3 -2 0 -31 -5 -64z m-2380 -26 c6 -24 21 -73 34 -110 13 -38 19 -68
15 -68 -19 0 -79 154 -79 202 0 34 19 18 30 -24z m-1711 -110 c-10 -141 -33
-254 -69 -335 -32 -73 -35 -43 -5 64 15 54 29 106 32 116 2 9 3 17 0 17 -2 0
-28 -65 -57 -145 -29 -79 -57 -142 -62 -138 -15 8 -3 51 57 215 31 82 65 187
76 234 37 155 41 151 28 -28z m959 117 c20 -13 64 -34 96 -45 69 -23 109 -47
101 -59 -16 -26 -161 37 -214 93 -41 42 -35 46 17 11z m436 -145 c13 -19 29
-53 36 -75 7 -22 26 -66 42 -98 23 -47 26 -56 11 -49 -44 24 -152 183 -187
275 -13 34 -27 71 -32 82 -9 25 100 -88 130 -135z m2643 118 c-3 -8 -6 -5 -6
6 -1 11 2 17 5 13 3 -3 4 -12 1 -19z m-2927 -18 c0 -5 -2 -10 -4 -10 -3 0 -8
5 -11 10 -3 6 -1 10 4 10 6 0 11 -4 11 -10z m3201 -88 c-27 -53 -67 -100 -102
-117 -35 -19 -39 -19 -39 1 0 21 154 185 158 168 2 -7 -6 -30 -17 -52z m-3190
9 c71 -10 97 -20 119 -45 11 -14 7 -15 -36 -10 -27 3 -64 10 -83 15 -45 11
-51 5 -9 -10 72 -27 149 -66 165 -83 15 -17 15 -18 -4 -18 -31 0 -161 70 -186
99 -12 14 -41 38 -65 54 -52 34 -56 54 -4 27 20 -11 67 -24 103 -29z m2939
-90 c14 -26 13 -64 -1 -55 -6 3 -20 25 -31 48 l-19 41 6 -95 c3 -52 9 -103 12
-114 3 -12 1 -17 -8 -14 -40 13 -48 215 -13 295 l17 38 13 -63 c7 -34 18 -71
24 -81z m-4125 109 c3 -5 2 -10 -4 -10 -5 0 -13 5 -16 10 -3 6 -2 10 4 10 5 0
13 -4 16 -10z m1729 -48 c97 -52 181 -175 241 -353 35 -103 30 -128 -9 -46
-36 76 -146 196 -228 248 -27 17 -48 35 -48 40 0 12 2 12 57 -12 51 -22 114
-75 144 -124 10 -16 19 -25 19 -19 0 41 -139 197 -227 253 -29 19 -50 38 -47
43 7 11 37 2 98 -30z m-1244 -35 c0 -45 -99 -154 -207 -228 -40 -28 -73 -37
-73 -21 0 4 41 43 90 86 50 43 109 102 133 132 46 60 57 65 57 31z m941 -94
c52 -49 133 -121 181 -161 82 -69 110 -102 87 -102 -6 0 -37 23 -68 50 -56 49
-61 51 -127 54 -78 4 -184 40 -184 62 0 13 4 13 28 0 33 -17 142 -39 168 -34
32 6 -85 57 -150 64 -43 5 -60 12 -63 24 -2 9 -26 27 -51 40 -61 30 -37 38 31
11 29 -11 72 -25 97 -30 43 -9 44 -9 25 7 -30 25 -88 102 -77 102 5 0 51 -39
103 -87z m2914 -24 c-64 -108 -128 -192 -159 -209 -41 -22 -41 -5 -1 52 61 85
197 249 203 244 2 -3 -17 -42 -43 -87z m-3397 52 c-58 -50 -199 -137 -383
-235 -99 -53 -184 -96 -188 -96 -5 0 0 -13 9 -30 10 -16 14 -33 10 -37 -4 -4
-11 -1 -16 7 -5 8 -16 24 -24 35 -14 18 -15 16 -2 -21 29 -86 22 -120 -19 -90
-16 11 -20 26 -20 68 l0 54 -37 -18 c-44 -22 -76 -27 -78 -13 -1 12 26 26 250
133 91 44 241 123 335 176 174 98 221 118 163 67z m3087 -40 c-4 -27 -1 -83 5
-123 7 -40 10 -85 8 -98 -4 -25 -4 -25 -25 9 -31 48 -39 136 -19 205 21 71 40
75 31 7z m587 -27 c25 -54 -40 -107 -83 -68 -27 25 -22 74 9 90 31 16 61 7 74
-22z m-3562 -29 c0 -19 -304 -185 -339 -185 -6 0 -11 6 -11 14 0 7 40 32 89
54 49 23 119 59 157 81 62 36 104 50 104 36z m734 -46 c62 -57 74 -85 29 -68
-35 13 -71 46 -89 81 -29 55 -10 52 60 -13z m501 -194 c0 -27 -3 -30 -30 -30
-21 0 -31 5 -33 18 -6 33 6 49 35 45 24 -3 28 -8 28 -33z m-460 -25 c-3 -5
-27 -16 -53 -24 -26 -7 -93 -32 -150 -55 -102 -41 -132 -48 -132 -33 0 14 79
53 178 88 94 33 170 44 157 24z"/>
<path d="M911 4191 c-8 -18 -25 -48 -37 -67 -28 -41 -51 -118 -57 -199 l-6
-60 25 47 c13 27 27 69 31 95 3 27 16 71 29 98 l22 50 2 -40 c2 -50 14 -93 22
-80 4 8 -4 114 -15 175 -1 8 -9 0 -16 -19z m-64 -223 c-3 -7 -5 -2 -5 12 0 14
2 19 5 13 2 -7 2 -19 0 -25z"/>
<path d="M982 4101 c-6 -17 -9 -31 -6 -31 7 0 25 52 20 57 -2 2 -8 -10 -14
-26z"/>
<path d="M783 3960 c0 -30 2 -43 4 -27 2 15 2 39 0 55 -2 15 -4 2 -4 -28z"/>
<path d="M4684 4828 c-17 -18 -43 -52 -58 -76 -19 -31 -56 -62 -129 -110 -56
-36 -151 -101 -212 -143 -112 -78 -233 -145 -243 -135 -3 3 25 33 62 67 60 56
136 149 121 149 -12 0 -89 -58 -171 -127 -137 -115 -225 -193 -218 -193 25 0
343 110 399 138 191 95 383 262 449 390 20 39 35 72 34 72 -2 0 -18 -15 -34
-32z"/>
<path d="M4545 4730 c-35 -23 -67 -38 -77 -34 -9 2 -19 0 -23 -6 -4 -6 -39
-32 -79 -57 -76 -49 -122 -87 -138 -117 -12 -22 -13 -22 87 44 39 25 109 70
156 99 71 43 156 111 138 111 -2 0 -31 -18 -64 -40z"/>
<path d="M3425 4769 c-4 -6 -5 -12 -2 -15 2 -3 7 2 10 11 7 17 1 20 -8 4z"/>
<path d="M3198 4573 c-20 -44 -38 -183 -25 -183 17 0 37 64 36 117 -1 32 3 70
10 86 18 46 1 30 -21 -20z"/>
<path d="M1086 4285 c-3 -9 -6 -22 -5 -28 0 -7 5 -1 10 12 5 13 8 26 5 28 -2
2 -6 -3 -10 -12z"/>
<path d="M2523 4354 c-18 -9 -49 -31 -70 -50 l-38 -33 52 -1 c28 0 60 -3 70
-7 10 -4 3 6 -14 21 -18 15 -33 31 -33 36 0 4 21 17 48 28 26 12 40 21 32 21
-8 1 -29 -7 -47 -15z"/>
<path d="M2635 4301 c6 -6 33 -13 60 -17 63 -7 40 12 -26 22 -32 5 -41 4 -34
-5z"/>
<path d="M2589 4096 c-44 -32 -89 -84 -89 -102 0 -4 11 7 24 24 13 18 44 49
70 69 40 31 53 44 44 43 -2 0 -24 -16 -49 -34z"/>
<path d="M3850 3662 c-30 -20 -62 -51 -72 -69 -18 -31 -18 -31 0 -26 22 5 139
120 131 128 -3 3 -30 -12 -59 -33z"/>
<path d="M2712 2910 c-23 -17 -42 -33 -42 -36 0 -4 56 34 85 58 23 20 -6 5
-43 -22z"/>
<path d="M922 3367 c-71 -107 -146 -307 -123 -330 8 -8 11 -7 11 3 0 8 32 81
71 163 71 150 102 227 95 234 -2 2 -26 -29 -54 -70z"/>
<path d="M630 2941 c-11 -34 -10 -47 9 -108 11 -37 37 -93 56 -123 l35 -55 0
42 c0 34 -69 265 -83 280 -2 2 -10 -14 -17 -36z"/>
<path d="M1245 2291 l-120 -69 -7 -47 c-4 -26 -9 -54 -13 -62 -3 -9 36 27 87
79 51 52 113 111 138 131 25 20 43 37 40 37 -3 0 -59 -31 -125 -69z"/>
<path d="M921 1958 c-1 -20 4 -40 9 -43 12 -7 12 32 0 60 -7 16 -9 13 -9 -17z"/>
<path d="M941 1840 c0 -8 4 -24 9 -35 5 -13 9 -14 9 -5 0 8 -4 24 -9 35 -5 13
-9 14 -9 5z"/>
<path d="M3903 3074 c-28 -13 -69 -41 -90 -62 -22 -20 -32 -32 -24 -26 9 6 51
32 94 58 42 26 77 49 77 52 0 6 1 6 -57 -22z"/>
<path d="M2758 2686 c-58 -35 -58 -41 0 -12 28 14 52 29 52 31 0 9 -14 4 -52
-19z"/>
<path d="M2433 2568 c-34 -35 -74 -83 -88 -108 -23 -39 -26 -41 -22 -16 5 31
24 47 -221 -189 -46 -44 -92 -92 -103 -107 l-20 -27 68 25 c37 15 76 29 85 31
10 3 16 9 13 13 -8 13 135 141 253 224 62 44 112 82 112 84 0 2 -12 -4 -27
-14 -142 -93 -173 -97 -61 -7 71 56 73 59 75 106 2 26 2 47 0 47 -1 0 -30 -28
-64 -62z"/>
<path d="M2529 2533 c-13 -16 -12 -17 4 -4 9 7 17 15 17 17 0 8 -8 3 -21 -13z"/>
<path d="M2555 2391 c-6 -5 -62 -42 -124 -81 -63 -40 -151 -99 -195 -133 -50
-38 -107 -71 -155 -89 -169 -64 -191 -73 -212 -88 -11 -9 42 4 118 29 144 48
262 111 424 227 66 48 172 144 158 144 -3 0 -9 -4 -14 -9z"/>
<path d="M3477 2484 c-32 -20 -56 -38 -54 -41 5 -4 69 31 106 59 41 31 8 20
-52 -18z"/>
<path d="M2553 2072 c-137 -103 -269 -255 -338 -392 l-27 -54 23 16 c13 8 42
47 64 87 22 40 62 98 88 130 67 81 165 176 173 168 7 -7 -73 -117 -158 -216
-25 -30 -57 -73 -69 -95 l-22 -40 51 30 c64 36 148 140 202 250 22 45 50 96
63 115 33 49 39 59 33 59 -2 0 -40 -26 -83 -58z"/>
<path d="M2212 1785 c-91 -87 -163 -168 -238 -270 l-29 -39 68 52 c37 28 76
56 86 62 10 5 36 40 59 77 22 37 68 101 101 141 34 39 59 72 57 72 -2 0 -49
-43 -104 -95z"/>
<path d="M1938 1073 c-20 -21 -42 -51 -48 -68 -6 -16 -9 -27 -7 -25 11 11 97
130 94 130 -2 0 -19 -17 -39 -37z"/>
<path d="M1876 935 c-9 -26 -7 -32 5 -12 6 10 9 21 6 23 -2 3 -7 -2 -11 -11z"/>
<path d="M1875 810 c-3 -6 1 -7 9 -4 18 7 21 14 7 14 -6 0 -13 -4 -16 -10z"/>
<path d="M4080 2275 c13 -14 26 -25 28 -25 3 0 -5 11 -18 25 -13 14 -26 25
-28 25 -3 0 5 -11 18 -25z"/>
<path d="M3890 2176 c-41 -24 -84 -54 -95 -66 l-20 -23 35 18 c47 24 170 103
170 110 0 11 -17 3 -90 -39z"/>
<path d="M3500 1986 c0 -8 121 -73 150 -81 18 -4 14 1 -15 19 -81 50 -135 76
-135 62z"/>
<path d="M3680 1952 c28 -38 23 -74 -10 -82 l-25 -6 25 -7 c29 -8 80 -9 80 -2
0 15 -57 105 -73 115 -15 9 -15 6 3 -18z"/>
<path d="M3853 1493 c15 -2 39 -2 55 0 15 2 2 4 -28 4 -30 0 -43 -2 -27 -4z"/>
<path d="M1142 1125 c25 -28 60 -72 77 -99 17 -28 31 -45 31 -40 0 20 -59 100
-106 144 l-49 45 47 -50z"/>
<path d="M2729 993 c-13 -16 -12 -17 4 -4 9 7 17 15 17 17 0 8 -8 3 -21 -13z"/>
<path d="M2710 959 c0 -5 5 -7 10 -4 6 3 10 8 10 11 0 2 -4 4 -10 4 -5 0 -10
-5 -10 -11z"/>
<path d="M1626 599 c21 -40 40 -67 41 -62 4 11 -64 133 -73 133 -3 0 12 -32
32 -71z"/>
<path d="M515 5105 c11 -9 32 -27 48 -41 25 -24 27 -24 27 -5 0 11 -5 23 -11
26 -6 4 -8 12 -6 19 3 8 -9 13 -37 14 -39 2 -40 1 -21 -13z"/>
<path d="M1018 5044 l-15 -76 30 39 c18 21 50 55 72 76 l40 37 -55 0 -56 0
-16 -76z"/>
<path d="M2331 5108 c0 -7 4 -22 9 -33 7 -17 9 -15 9 13 1 17 -3 32 -9 32 -5
0 -10 -6 -9 -12z"/>
<path d="M2374 5093 c-12 -53 -25 -104 -31 -121 -4 -9 23 17 60 57 71 77 78
91 49 91 -12 0 -28 -18 -46 -52 l-27 -53 7 53 c6 55 -1 71 -12 25z"/>
<path d="M3034 5063 c-14 -32 -32 -76 -40 -98 -14 -40 -14 -40 60 36 60 60 74
80 69 97 -4 16 -13 22 -34 22 -26 0 -32 -7 -55 -57z"/>
<path d="M3145 5110 c-3 -6 1 -7 9 -4 18 7 21 14 7 14 -6 0 -13 -4 -16 -10z"/>
<path d="M3841 5098 c20 -40 64 -108 69 -108 3 0 3 29 2 65 l-4 65 -39 0 c-38
0 -39 -1 -28 -22z"/>
<path d="M3938 5068 c-2 -29 -3 -55 -2 -56 3 -4 53 73 61 94 4 10 -3 14 -25
14 -29 0 -30 -2 -34 -52z"/>
<path d="M4007 5058 c-43 -69 -52 -71 83 19 l65 43 -55 0 -55 0 -38 -62z"/>
<path d="M2961 5001 c-22 -52 -29 -117 -11 -106 6 3 10 19 10 34 0 16 7 48 15
71 21 60 12 61 -14 1z"/>
<path d="M2237 4946 c-12 -31 -7 -121 9 -176 10 -35 13 -69 9 -97 -3 -24 -4
-43 -1 -43 7 0 101 121 116 149 12 23 11 23 -28 -5 -23 -16 -45 -38 -51 -49
-7 -15 -10 -5 -11 45 -1 75 -33 203 -43 176z"/>
<path d="M2892 4892 c-14 -63 -16 -132 -2 -132 16 0 27 63 20 125 l-6 60 -12
-53z"/>
<path d="M235 4906 l-50 -12 67 -23 c37 -12 78 -31 90 -42 l23 -20 -40 5 c-22
3 -51 8 -65 11 -37 8 78 -31 128 -42 l42 -10 -24 41 c-21 37 -98 107 -114 105
-4 0 -29 -6 -57 -13z"/>
<path d="M792 4830 c0 -19 2 -27 5 -17 2 9 2 25 0 35 -3 9 -5 1 -5 -18z"/>
<path d="M2206 4732 c2 -29 9 -62 14 -75 9 -22 9 -22 8 3 0 14 -6 48 -14 75
l-13 50 5 -53z"/>
<path d="M40 4322 c24 -34 49 -84 57 -110 l13 -47 -5 45 c-7 51 -40 113 -81
150 -22 20 -18 12 16 -38z"/>
<path d="M0 4278 c0 -15 5 -30 11 -33 5 -4 24 -28 40 -53 27 -42 30 -44 24
-17 -16 75 -27 105 -36 99 -6 -3 -17 2 -24 12 -13 18 -14 17 -15 -8z"/>
<path d="M1 4079 c0 -31 4 -36 54 -60 l54 -25 -19 25 c-10 15 -34 42 -54 60
l-36 35 1 -35z"/>
<path d="M4 3982 c3 -5 30 -14 60 -21 30 -7 60 -19 66 -27 11 -12 7 -14 -24
-14 -20 0 -52 7 -71 14 -34 15 -35 14 -35 -9 0 -26 1 -26 113 -40 31 -4 47 -3
47 5 0 14 -39 90 -46 90 -3 0 -2 -4 1 -10 9 -14 -5 -13 -55 5 -48 17 -64 19
-56 7z"/>
<path d="M1 3856 c3 -12 37 -33 101 -61 54 -24 98 -41 98 -39 0 3 -9 22 -20
43 -14 28 -31 43 -61 55 -60 24 -60 12 0 -18 49 -25 66 -46 38 -46 -15 0 -88
36 -131 65 -27 18 -28 18 -25 1z"/>
<path d="M0 3784 c0 -37 3 -41 53 -67 62 -33 151 -97 144 -103 -3 -3 -31 8
-63 24 -33 16 -76 37 -96 45 l-38 16 0 -43 0 -43 62 -7 c91 -9 98 -26 10 -26
-65 0 -72 -2 -72 -20 0 -15 7 -20 25 -20 32 0 32 -13 0 -30 -14 -7 -25 -18
-25 -23 0 -17 63 2 90 27 49 46 128 68 150 41 11 -13 7 -15 -32 -15 -34 0 -55
-7 -86 -30 -23 -17 -42 -32 -42 -35 0 -2 29 -2 65 2 56 5 65 4 65 -11 0 -13
-12 -16 -72 -16 -58 0 -78 -4 -105 -22 -28 -19 -33 -29 -33 -61 0 -21 3 -37 7
-35 88 45 188 90 212 94 31 7 39 18 21 29 -16 10 -11 25 9 25 10 0 24 -7 31
-15 24 -28 30 -15 11 23 -10 20 -31 76 -46 125 -15 48 -30 87 -34 87 -7 0
-141 76 -183 104 l-28 18 0 -38z"/>
<path d="M5077 3335 c-105 -39 -283 -191 -445 -380 -127 -148 -148 -193 -41
-85 47 47 117 105 157 130 51 31 92 67 133 117 56 67 79 86 79 64 0 -4 -16
-29 -35 -55 -20 -25 -34 -46 -31 -46 3 0 26 11 52 25 26 14 52 25 59 25 6 0
22 23 35 51 14 28 36 58 52 67 24 14 28 23 28 59 0 24 -1 43 -2 42 -2 0 -20
-7 -41 -14z"/>
<path d="M5051 3150 c-33 -50 -62 -99 -66 -109 -3 -11 -12 -25 -21 -32 -13
-10 -13 -8 -4 15 15 40 14 40 -33 13 -24 -14 -57 -28 -73 -30 -25 -3 -30 -10
-40 -48 -8 -33 -15 -44 -30 -44 -13 0 -19 7 -18 23 1 37 -23 6 -44 -58 -25
-72 -46 -80 -36 -14 l7 49 -85 -81 c-47 -45 -96 -89 -109 -97 -13 -9 -33 -31
-43 -48 -19 -32 -19 -32 0 -25 10 4 39 14 64 22 74 25 261 119 326 166 106 74
274 222 274 241 0 22 -8 21 -47 -2 -22 -14 -33 -16 -36 -8 -8 24 6 46 44 71
31 21 39 33 39 56 0 17 -2 30 -5 30 -2 0 -31 -41 -64 -90z"/>
<path d="M13 2854 c-12 -5 -20 -114 -9 -114 2 0 26 10 53 21 63 28 178 59 222
60 l36 0 -40 16 c-40 15 -238 28 -262 17z"/>
<path d="M93 2725 c-51 -25 -93 -49 -93 -55 0 -15 4 -14 78 24 57 29 128 76
112 75 -3 0 -47 -20 -97 -44z"/>
<path d="M5030 2696 c-98 -48 -152 -85 -233 -159 l-58 -53 48 -34 c162 -116
265 -220 309 -315 l24 -50 0 136 0 136 -46 13 c-34 10 -60 10 -100 3 -30 -5
-57 -6 -60 -2 -6 11 51 40 61 31 5 -4 5 -1 1 6 -5 8 18 28 68 60 l76 47 0 63
0 63 -160 -82 c-88 -45 -163 -79 -167 -75 -16 16 71 82 190 142 70 36 131 72
134 79 12 33 -7 31 -87 -9z"/>
<path d="M4185 2590 c32 -36 105 -78 172 -101 35 -11 66 -19 69 -17 2 3 -20
28 -49 56 -54 50 -125 82 -185 82 -25 0 -25 0 -7 -20z m99 -31 c15 -12 25 -23
22 -26 -5 -6 -63 24 -71 37 -11 18 22 11 49 -11z"/>
<path d="M4026 2581 c-10 -16 36 -31 97 -31 46 0 50 1 36 16 -20 19 -123 31
-133 15z"/>
<path d="M5045 2440 c-55 -33 -51 -35 25 -19 39 8 50 15 50 30 0 26 -16 23
-75 -11z"/>
<path d="M3895 2430 c-10 -11 -14 -20 -8 -20 5 0 18 9 28 20 10 11 14 20 8 20
-5 0 -18 -9 -28 -20z"/>
<path d="M221 2392 c-1 -14 15 -39 40 -65 l41 -42 -29 40 c-16 22 -34 51 -40
65 -12 25 -12 25 -12 2z"/>
<path d="M9 2257 c6 -8 8 -17 4 -20 -3 -4 1 -9 10 -13 9 -3 24 1 32 10 15 15
15 16 -4 16 -11 0 -23 5 -26 10 -3 6 -11 10 -17 10 -7 0 -7 -4 1 -13z"/>
<path d="M112 2204 c15 -15 31 -23 38 -19 16 10 -17 45 -44 45 -19 0 -19 -1 6
-26z"/>
<path d="M0 2090 l0 -112 53 38 c28 21 64 48 80 60 l27 23 -43 19 c-24 11 -60
34 -80 52 l-37 32 0 -112z"/>
<path d="M60 2175 c7 -8 24 -15 39 -15 l26 1 -25 14 c-35 20 -57 20 -40 0z"/>
<path d="M175 2170 c-10 -17 12 -37 25 -24 8 8 6 15 -4 23 -10 9 -16 9 -21 1z"/>
<path d="M5027 2133 c15 -29 34 -55 41 -57 16 -7 -8 38 -43 79 l-26 30 28 -52z"/>
<path d="M135 2130 c3 -5 14 -10 23 -10 15 0 15 2 2 10 -20 13 -33 13 -25 0z"/>
<path d="M159 2044 c-18 -20 -62 -56 -96 -82 -35 -25 -63 -50 -63 -55 0 -5 11
-18 25 -29 14 -11 25 -26 25 -33 0 -8 -11 -22 -25 -31 -17 -11 -25 -25 -25
-45 0 -16 3 -29 6 -29 4 0 185 139 287 221 20 16 19 17 -34 68 -29 28 -56 51
-59 51 -3 0 -22 -16 -41 -36z"/>
<path d="M400 1957 c-65 -28 -259 -148 -342 -212 l-58 -45 0 -60 0 -60 63 31
c34 18 119 65 188 105 150 87 197 102 266 87 26 -6 50 -10 52 -7 2 2 -9 43
-25 91 -27 83 -31 88 -59 91 -16 1 -55 -8 -85 -21z"/>
<path d="M4451 1908 c0 -27 4 -48 9 -48 11 0 11 21 0 65 -7 27 -8 25 -9 -17z"/>
<path d="M5060 1657 c0 -2 14 -16 30 -32 23 -22 30 -25 30 -12 0 9 -13 23 -30
32 -16 9 -30 14 -30 12z"/>
<path d="M5095 1380 c10 -11 20 -18 23 -15 7 6 -18 35 -31 35 -5 0 -2 -9 8
-20z"/>
<path d="M0 1175 l0 -55 58 0 c31 0 68 -3 82 -6 23 -6 22 -4 -10 25 -39 35
-116 91 -124 91 -3 0 -6 -25 -6 -55z"/>
<path d="M5080 1195 c0 -2 9 -9 20 -15 16 -9 20 -8 20 5 0 8 -9 15 -20 15 -11
0 -20 -2 -20 -5z"/>
<path d="M4965 1011 c8 -25 46 -103 83 -173 l67 -129 3 87 3 88 -86 86 -86 85
16 -44z"/>
<path d="M4501 955 c1 -19 18 -51 18 -35 0 8 -4 22 -9 30 -5 8 -9 11 -9 5z"/>
<path d="M5020 785 c0 -14 65 -187 84 -221 l15 -29 0 40 c0 29 -13 64 -49 130
-27 50 -50 86 -50 80z"/>
<path d="M3505 330 c-27 -28 -86 -79 -130 -113 -87 -68 -225 -195 -225 -209 0
-20 12 -12 275 181 60 44 88 72 109 110 42 78 30 91 -29 31z"/>
<path d="M3027 178 c-43 -78 -87 -165 -87 -173 0 -4 12 -5 26 -3 23 3 28 11
44 68 9 36 26 89 38 118 12 28 20 52 18 52 -2 0 -20 -28 -39 -62z"/>
<path d="M1328 89 c-9 -13 -30 -39 -48 -56 l-32 -33 66 0 c75 0 71 -7 42 79
l-12 33 -16 -23z"/>
<path d="M5000 105 c0 -9 112 -87 117 -81 11 11 -7 36 -25 36 -11 0 -36 11
-56 25 -20 13 -36 22 -36 20z"/>
<path d="M0 63 c0 -14 57 -66 67 -62 5 2 -8 19 -29 38 -21 18 -38 29 -38 24z"/>
<path d="M662 40 c0 -14 2 -19 5 -12 2 6 2 18 0 25 -3 6 -5 1 -5 -13z"/>
<path d="M2170 26 c0 -8 5 -18 10 -21 6 -3 10 1 10 9 0 8 -4 18 -10 21 -5 3
-10 -1 -10 -9z"/>
<path d="M1400 15 c0 -8 4 -15 10 -15 5 0 7 7 4 15 -4 8 -8 15 -10 15 -2 0 -4
-7 -4 -15z"/>
</g>
</svg>